<svg width="67" height="18" viewBox="0 0 67 18" fill="none" xmlns="http://www.w3.org/2000/svg">
<path d="M17.4784 17.905C17.4784 17.8527 17.4623 17.8199 17.4426 17.8322C17.4228 17.8444 17.3821 17.7952 17.352 17.7229C17.3202 17.6466 17.2713 17.5914 17.2354 17.5914C17.1864 17.5914 17.1825 17.5804 17.2165 17.5392C17.2496 17.4992 17.2485 17.4834 17.2118 17.471C17.1742 17.4583 17.1759 17.4404 17.2195 17.387C17.2618 17.3353 17.264 17.3155 17.2288 17.3036C17.2033 17.295 17.1825 17.2716 17.1825 17.2517C17.1825 17.2317 17.199 17.2256 17.2191 17.2381C17.2401 17.2511 17.2463 17.2362 17.2336 17.2032C17.2215 17.1715 17.2306 17.1455 17.2538 17.1455C17.2846 17.1455 17.2853 17.1253 17.2565 17.0712C17.2247 17.0115 17.2284 16.9969 17.2751 16.9969C17.3222 16.9969 17.3245 16.9873 17.2871 16.9471C17.2392 16.8956 17.1462 16.9416 17.1583 17.0108C17.1615 17.0287 17.1445 17.0506 17.1207 17.0594C17.0922 17.0699 17.0847 17.0473 17.0988 16.9932C17.1106 16.948 17.1051 16.9198 17.0866 16.9307C17.0682 16.9416 17.0198 16.9381 16.9791 16.9231C16.9204 16.9014 16.9376 16.8902 17.0623 16.8688C17.1603 16.8519 17.2195 16.822 17.2195 16.7893C17.2195 16.7604 17.2519 16.7368 17.2914 16.7368C17.3309 16.7368 17.386 16.7042 17.4139 16.6642C17.4638 16.5927 17.6522 16.4951 17.7132 16.5091C17.7305 16.5131 17.8387 16.4925 17.9537 16.4633C18.0687 16.4342 18.2668 16.3985 18.394 16.3841C18.5212 16.3697 18.6345 16.3429 18.6459 16.3245C18.6572 16.306 18.7029 16.2906 18.7475 16.2901C18.7921 16.2897 18.9284 16.2399 19.0505 16.1795C19.1726 16.1191 19.3006 16.0693 19.335 16.0689C19.3694 16.0684 19.4078 16.0513 19.4204 16.0309C19.433 16.0104 19.4245 15.9937 19.4015 15.9937C19.3502 15.9937 19.3687 15.8275 19.4204 15.8239C19.4407 15.8225 19.5303 15.8004 19.6195 15.7747C19.7087 15.7491 19.8223 15.7383 19.872 15.7508C19.9216 15.7634 20.0151 15.7572 20.0797 15.7372C20.1443 15.7172 20.29 15.6826 20.4036 15.6602C20.7151 15.599 20.8815 15.5478 20.8815 15.5133C20.8815 15.4775 18.9839 15.5025 18.5141 15.5445C18.2666 15.5666 18.1722 15.5605 18.0703 15.516C17.9991 15.4849 17.9325 15.4571 17.9223 15.4541C17.9121 15.4512 17.8552 15.4286 17.7957 15.4039C17.7363 15.3792 17.6614 15.3693 17.6293 15.3819C17.5972 15.3944 17.1048 15.4107 16.5352 15.418C15.9656 15.4254 15.4246 15.448 15.333 15.4684C15.2415 15.4887 14.9671 15.5248 14.7234 15.5485C14.4796 15.5722 14.2483 15.6088 14.2094 15.6297C14.1704 15.6506 14.0573 15.6599 13.9579 15.6503C13.8586 15.6407 13.7683 15.6475 13.7573 15.6653C13.7464 15.6831 13.7219 15.6881 13.703 15.6763C13.684 15.6646 13.6685 15.6726 13.6685 15.6943C13.6685 15.7159 13.656 15.7303 13.6408 15.7263C13.5792 15.7099 13.2616 15.7775 13.2616 15.807C13.2616 15.8432 12.9822 15.9035 12.8766 15.89C12.8377 15.8851 12.7746 15.9147 12.7364 15.9559C12.6982 15.9972 12.6384 16.0328 12.6036 16.0353C12.5688 16.0377 12.4405 16.0433 12.3184 16.0477C12.1963 16.0521 12.0299 16.075 11.9485 16.0986C11.8671 16.1222 11.7377 16.1509 11.6608 16.1624C11.584 16.1738 11.5301 16.1979 11.5411 16.2158C11.5756 16.2718 11.4934 16.2865 10.8507 16.339C10.8166 16.3417 10.7916 16.3599 10.7952 16.3792C10.7989 16.3986 10.7685 16.4243 10.7279 16.4363C10.6872 16.4483 10.6118 16.4869 10.5605 16.522C10.4933 16.5679 10.3532 16.5925 10.0611 16.6097C9.83784 16.6228 9.61668 16.6318 9.56966 16.6297C9.52263 16.6276 9.43303 16.6524 9.37055 16.6848C9.30603 16.7183 9.24709 16.7291 9.23412 16.7097C9.20227 16.6622 9.07205 16.6166 9.10058 16.6629C9.13064 16.7118 9.09465 16.7093 8.99616 16.6557C8.79738 16.5474 7.85634 16.6297 7.75817 16.7639C7.72777 16.8054 7.72444 16.8335 7.74892 16.8416C7.76997 16.8487 7.78719 16.8693 7.78719 16.8874C7.78719 16.9054 7.7639 16.9113 7.73545 16.9003C7.70699 16.8893 7.67271 16.8982 7.65928 16.92C7.62342 16.9783 7.84509 16.9699 7.96472 16.9084C8.01966 16.8802 8.13951 16.8447 8.23106 16.8297C8.32261 16.8147 8.42664 16.7969 8.46225 16.7903C8.49785 16.7837 8.52698 16.8001 8.52698 16.8269C8.52698 16.8613 8.57298 16.8719 8.68418 16.8632C8.8057 16.8536 8.82652 16.8595 8.77588 16.889C8.73985 16.91 8.7187 16.9407 8.72888 16.9572C8.75083 16.9929 8.54403 17.0288 8.14365 17.0588C7.91884 17.0756 7.84548 17.0689 7.82056 17.0294C7.79718 16.9924 7.78817 16.9911 7.78775 17.0248C7.78692 17.0932 7.56458 17.0821 7.48494 17.0097C7.44773 16.9759 7.41729 16.964 7.41729 16.9834C7.41729 17.0047 7.29723 17.0085 7.11213 16.993C6.94429 16.9789 6.68213 16.9582 6.52954 16.947C6.37696 16.9357 6.19745 16.9071 6.13062 16.8833C6.0638 16.8595 5.96769 16.8481 5.91705 16.8578C5.86641 16.8675 5.81448 16.8584 5.80165 16.8375C5.78731 16.8142 5.79698 16.8112 5.82674 16.8297C5.85687 16.8484 5.86619 16.8452 5.85141 16.8211C5.82355 16.7759 5.64714 16.7349 5.43835 16.7251C5.31519 16.7194 5.28972 16.7049 5.28638 16.6384C5.28279 16.567 5.3083 16.5556 5.52681 16.5301C5.66126 16.5145 5.81287 16.5053 5.86373 16.5097L5.95621 16.5177L5.85806 16.4641C5.68787 16.3712 5.52191 16.332 5.19792 16.3082C5.025 16.2954 4.77532 16.2577 4.64308 16.2244C4.33894 16.1476 3.28359 16.1417 3.23756 16.2165C3.22172 16.2423 3.18918 16.2512 3.16525 16.2363C3.10345 16.1979 2.42275 16.185 2.44591 16.2227C2.46756 16.2579 2.46205 16.2585 1.97817 16.2732C1.63665 16.2836 1.49249 16.2963 0.981122 16.361C0.747949 16.3905 0.611619 16.3736 0.47835 16.2987C0.422539 16.2673 0.434568 16.2495 0.568976 16.1643C0.677387 16.0955 0.80983 16.0551 1.00974 16.0297C1.35091 15.9864 1.67642 15.9318 1.91094 15.8786C2.05122 15.8468 2.0792 15.8271 2.0645 15.7707C2.05395 15.7301 2.02512 15.7099 1.99469 15.7216C1.96618 15.7326 1.94285 15.7231 1.94285 15.7005C1.94285 15.6778 1.97198 15.6591 2.00758 15.6588C2.0629 15.6583 2.06424 15.653 2.01683 15.6222C1.98174 15.5994 1.97791 15.5859 2.00642 15.5856C2.03128 15.5853 2.04191 15.5599 2.03013 15.5291C2.01526 15.4902 2.05216 15.4538 2.1515 15.4094L2.29425 15.3457L1.93284 15.3233C1.73406 15.311 1.4719 15.3026 1.35025 15.3047C1.22861 15.3067 1.12908 15.3064 1.12908 15.3038C1.12908 15.3012 1.16237 15.2606 1.20306 15.2135C1.24375 15.1663 1.27704 15.1391 1.27704 15.1529C1.27704 15.1667 1.31452 15.1534 1.36033 15.1232C1.40615 15.0931 1.56703 15.0492 1.71785 15.0257C1.86866 15.0021 2.05799 14.9596 2.13856 14.931C2.21913 14.9024 2.34538 14.8785 2.41912 14.8778C2.62511 14.8757 3.14401 14.7402 2.99397 14.7276C2.97532 14.7261 2.92677 14.7171 2.88608 14.7077C2.84539 14.6983 2.79178 14.6861 2.76694 14.6806C2.68231 14.662 2.6769 14.6258 2.75502 14.6009C2.7979 14.5873 2.87649 14.5356 2.92966 14.4861C2.98284 14.4366 3.06349 14.3961 3.10889 14.3961C3.15429 14.3961 3.21042 14.3731 3.23363 14.345C3.26831 14.303 3.23781 14.2896 3.06246 14.2695C2.94511 14.2561 2.79915 14.237 2.73812 14.2271C2.59292 14.2036 2.01514 14.207 1.97545 14.2316C1.92191 14.2648 1.49897 14.2805 1.49897 14.2493C1.49897 14.2328 1.52394 14.1986 1.55446 14.1731C1.58498 14.1477 1.60994 14.1094 1.60994 14.0881C1.60994 14.0668 1.59899 14.0603 1.5856 14.0737C1.57222 14.0872 1.53893 14.0796 1.51163 14.0568C1.48414 14.0339 1.46199 14.0313 1.46199 14.0509C1.46199 14.0705 1.43702 14.0865 1.4065 14.0865C1.31767 14.0865 1.34203 14.0467 1.46411 13.9924C1.60139 13.9313 1.58173 13.9057 1.36041 13.8573C1.15852 13.8132 1.12003 13.744 1.26478 13.6853C1.41459 13.6247 2.1184 13.546 2.52074 13.5449C2.70932 13.5443 2.90778 13.5328 2.96175 13.5192L3.05987 13.4945L2.95448 13.4079C2.89652 13.3602 2.82094 13.3207 2.78654 13.3199C2.69887 13.3181 2.67222 13.259 2.71925 13.1707C2.76891 13.0775 3.09066 12.9099 3.21994 12.9099C3.27444 12.9099 3.30596 12.8939 3.29297 12.8727C3.28039 12.8523 3.23958 12.8356 3.20227 12.8356C3.1396 12.8356 3.06992 12.7428 3.08365 12.6777C3.09761 12.6115 2.51073 12.6855 2.46161 12.7562C2.4241 12.8101 1.47955 12.9512 1.3867 12.9167L1.29827 12.8838L1.38429 12.8376C1.43159 12.8122 1.73892 12.7464 2.06722 12.6914C2.66798 12.5908 2.8142 12.5198 2.42053 12.5198C2.29957 12.5198 2.1883 12.4985 2.15212 12.4686C2.10074 12.426 2.0296 12.4248 1.72992 12.4616C1.17888 12.5292 0.85863 12.5756 0.783527 12.5988C0.73377 12.6142 0.718806 12.6032 0.728043 12.558C0.741504 12.4921 0.855944 12.4149 1.03535 12.3505C1.18978 12.2951 1.09379 12.2463 0.896337 12.2798C0.810731 12.2943 0.665786 12.318 0.574237 12.3324L0.407785 12.3585L0.546495 12.225C0.622786 12.1516 0.685206 12.0855 0.685206 12.0782C0.685206 12.0709 0.581988 12.0532 0.455833 12.0389C0.157554 12.005 -0.00204647 11.921 1.9813e-05 11.799C0.00110521 11.7347 0.240401 11.6484 0.463059 11.632C0.554724 11.6253 0.762883 11.5932 0.925637 11.5607C1.08839 11.5282 1.33809 11.4942 1.48053 11.485C1.62296 11.4758 1.83935 11.4506 1.96139 11.4291C2.71933 11.2954 2.88991 11.2625 2.92258 11.2437C2.94266 11.2321 2.8844 11.2044 2.79312 11.1821C2.70126 11.1596 2.62715 11.1197 2.62715 11.0927C2.62715 11.0302 2.99997 10.8944 3.33833 10.8336C3.50292 10.8041 3.6247 10.7601 3.66457 10.7159C3.70026 10.6763 3.82409 10.6263 3.94659 10.6021C4.22455 10.5472 4.21704 10.4951 3.91503 10.383C3.85028 10.359 3.8048 10.3199 3.81397 10.2963C3.83483 10.2425 4.00628 10.1605 4.0978 10.1605C4.13563 10.1605 4.1563 10.1437 4.14372 10.1233C4.13115 10.1029 3.997 10.0862 3.84562 10.0862C3.59621 10.0862 3.49605 10.0482 3.61662 9.9993C3.72436 9.95563 3.18454 9.97927 2.91791 10.0299C2.58588 10.0929 2.40522 10.0665 2.40522 9.95501C2.40522 9.90359 2.50184 9.83607 2.76829 9.7013C3.0193 9.57434 3.11634 9.50791 3.0827 9.48609C3.0188 9.44464 3.08187 9.40226 3.32995 9.31995C3.68013 9.20378 3.95792 9.00904 3.92145 8.90531C3.89654 8.83445 4.03302 8.79581 4.5969 8.71406C4.87718 8.67342 5.15787 8.61443 5.22066 8.58297C5.28345 8.55151 5.41637 8.51594 5.51605 8.50394C5.7909 8.47085 6.31681 8.33722 6.39906 8.27956C6.43919 8.25144 6.52242 8.22725 6.58401 8.22581C6.6456 8.22438 6.72929 8.20883 6.76998 8.19127C6.82888 8.16585 6.81381 8.15822 6.696 8.15387C6.38071 8.1422 6.21342 8.11098 6.17161 8.056C6.14308 8.01847 6.0985 8.00693 6.04215 8.02248C5.96819 8.04289 5.96533 8.04046 6.02161 8.00505C6.05758 7.98242 6.11584 7.96866 6.15107 7.97448C6.18631 7.9803 6.23753 7.97098 6.2649 7.95375C6.29434 7.93521 6.35192 7.94245 6.40589 7.97147C6.47699 8.00969 6.51256 8.01082 6.5671 7.97662C6.61138 7.94884 6.64531 7.94608 6.65948 7.96911C6.67179 7.98913 6.7766 8.0061 6.89238 8.00682C7.00815 8.00754 7.14449 8.03203 7.19535 8.06124C7.30616 8.12486 7.34331 8.12953 7.34331 8.07981C7.34331 8.05938 7.31736 8.04266 7.28565 8.04266C7.25393 8.04266 7.2371 8.02784 7.24824 8.00973C7.25938 7.99162 7.23365 7.96764 7.19104 7.95645C7.14844 7.94526 7.12081 7.9141 7.12965 7.88721C7.14597 7.83758 7.31165 7.8085 7.82418 7.76532C8.28721 7.7263 8.41601 7.70531 8.41601 7.66884C8.41601 7.64965 8.39104 7.63396 8.36052 7.63396C8.3297 7.63396 8.30504 7.60093 8.30504 7.55965C8.30504 7.50516 8.3297 7.48534 8.39751 7.48534C8.50392 7.48534 8.52206 7.42812 8.42384 7.40232C8.38746 7.39277 8.2002 7.39388 8.00771 7.40479C7.44708 7.43657 7.22282 7.42599 7.10553 7.36224C7.04596 7.32986 6.98655 7.30999 6.97352 7.31808C6.96048 7.32618 6.95669 7.28573 6.9651 7.2282C6.98344 7.10268 6.93141 7.0831 6.55162 7.07261C6.32432 7.06632 6.30667 7.06068 6.38567 7.01956C6.51563 6.95191 6.99234 6.85482 7.27662 6.8381C7.4219 6.82956 7.55914 6.79905 7.60851 6.76431C7.71359 6.69038 7.77691 6.68946 7.84796 6.76082C7.87991 6.79292 7.96898 6.81622 8.058 6.81575C8.33216 6.81433 9.35504 6.70984 9.49392 6.66907C9.6236 6.63099 9.62754 6.62484 9.60018 6.50298C9.58293 6.4262 9.58681 6.36132 9.61004 6.33799C9.63642 6.31149 9.63529 6.28376 9.60639 6.24878C9.51802 6.14183 9.63043 6.11969 10.1702 6.13771C10.5897 6.15172 10.7205 6.14405 10.8056 6.10045C10.8957 6.05433 11.3016 5.99071 11.5786 5.97931C11.6193 5.97765 11.7358 5.96133 11.8375 5.94306L12.0225 5.90984L11.856 5.88282C11.7645 5.86795 11.4898 5.86432 11.2457 5.87474C11.0016 5.88516 10.652 5.89146 10.4689 5.88874C10.2858 5.88602 9.92796 5.91103 9.67365 5.94432C9.17048 6.01018 8.65157 6.05625 8.42818 6.05489C8.35028 6.05442 8.27609 6.06863 8.26331 6.08648C8.25053 6.10433 8.18812 6.12106 8.1246 6.12367C8.06109 6.12628 8.00913 6.14225 8.00913 6.15917C8.00913 6.17609 7.97167 6.17935 7.9259 6.16642C7.86075 6.14801 7.85472 6.15138 7.89816 6.18192C7.94599 6.21556 7.94471 6.22102 7.88891 6.22151C7.85331 6.22185 7.82418 6.24072 7.82418 6.26351C7.82418 6.28895 7.789 6.28179 7.73301 6.24493C7.63175 6.17829 7.58735 6.16783 7.61814 6.21786C7.62928 6.23597 7.6053 6.25948 7.56484 6.27011C7.52273 6.28117 7.49127 6.27106 7.49126 6.24647C7.49126 6.22159 7.43286 6.2035 7.35255 6.2035C7.26439 6.2035 7.21701 6.21978 7.22251 6.24817C7.22847 6.27891 7.18861 6.28737 7.09465 6.27528C6.94067 6.25548 6.78876 6.16891 6.78791 6.10047C6.78751 6.07122 6.77449 6.07486 6.75148 6.11062C6.72365 6.15387 6.7155 6.14293 6.71506 6.06173C6.71434 5.92772 6.77528 5.81338 6.84744 5.81338C6.87844 5.81338 6.89352 5.79666 6.88094 5.77623C6.86837 5.75579 6.8882 5.73779 6.925 5.73623C7.04689 5.73105 7.12431 5.70854 7.20672 5.6543C7.28062 5.60566 7.45428 5.62438 7.45428 5.68098C7.45428 5.69122 7.43198 5.69099 7.40472 5.68044C7.37747 5.66994 7.33169 5.69039 7.303 5.7259C7.25805 5.78153 7.2581 5.78606 7.3034 5.75865C7.3438 5.73419 7.34992 5.74258 7.32989 5.79499C7.31432 5.83575 7.32294 5.87529 7.35135 5.8934C7.42212 5.9385 7.48171 5.93002 7.41734 5.884C7.37559 5.85416 7.39702 5.84926 7.50392 5.86421C7.58249 5.87519 7.6762 5.86512 7.7136 5.84165C7.76479 5.80954 7.79439 5.81021 7.83539 5.84439C7.87907 5.88081 7.89511 5.87678 7.91825 5.82358C7.93402 5.7873 7.94429 5.74507 7.94106 5.72975C7.93783 5.71442 7.95877 5.70188 7.98759 5.70188C8.01641 5.70188 8.04634 5.68276 8.05409 5.65939C8.06185 5.63602 8.11703 5.61166 8.17671 5.60527C8.23639 5.59888 8.30382 5.5681 8.32655 5.53688C8.34928 5.50565 8.38137 5.49239 8.39786 5.5074C8.41435 5.5224 8.41739 5.50542 8.40461 5.46966C8.37602 5.38962 8.44677 5.38214 8.47727 5.46198C8.49665 5.51272 8.50715 5.51206 8.56858 5.45622C8.63416 5.39661 8.63802 5.39703 8.63855 5.4639C8.63902 5.5232 8.64493 5.52564 8.67498 5.47895C8.72843 5.39587 8.7208 5.37777 8.6218 5.35281C8.55901 5.33698 8.53342 5.30633 8.5375 5.25185C8.54402 5.16507 8.67286 5.1002 8.82132 5.10896C8.9597 5.11713 9.08186 5.06932 9.08186 5.00699C9.08186 4.96687 9.11862 4.95509 9.22057 4.96257C9.36965 4.9735 9.62046 4.93168 9.71068 4.88084C9.75549 4.8556 9.75193 4.84902 9.69219 4.84669C9.6515 4.84512 9.53498 4.83597 9.43326 4.82639C9.11873 4.79677 8.70035 4.7977 8.54941 4.82836C8.4458 4.8494 8.41259 4.84586 8.43112 4.81574C8.44703 4.78988 8.43703 4.78153 8.40495 4.79389C8.37452 4.80562 8.32542 4.77161 8.28639 4.71177C8.23873 4.63871 8.23246 4.60537 8.26438 4.59468C8.29435 4.58465 8.2871 4.56249 8.24231 4.52719C8.18152 4.4793 8.18544 4.47636 8.28659 4.49401C8.34762 4.50467 8.37675 4.50353 8.35132 4.49148C8.25764 4.44712 8.30923 4.40147 8.45303 4.40147C8.54644 4.40147 8.6012 4.4186 8.60155 4.44791C8.60196 4.48209 8.61052 4.48104 8.63392 4.44395C8.6539 4.41228 8.67437 4.4076 8.68899 4.43135C8.71382 4.47171 8.7609 4.46857 8.87651 4.41885C8.91616 4.4018 9.00331 4.38674 9.07018 4.38538C9.22348 4.38225 9.27326 4.29001 9.12164 4.29001C9.06167 4.29001 9.00656 4.26585 8.9945 4.23428C8.98013 4.19667 8.99629 4.17855 9.04419 4.17855C9.08322 4.17855 9.12848 4.15765 9.14475 4.1321C9.18717 4.0655 9.33791 3.9866 9.37672 4.0107C9.39483 4.02194 9.4201 4.01416 9.43288 3.99338C9.44566 3.97261 9.50205 3.95562 9.55819 3.95562C9.61432 3.95562 9.75067 3.92847 9.86117 3.89528C10.0356 3.8429 10.0512 3.83086 9.98 3.80402C9.93486 3.78702 9.626 3.77537 9.29365 3.77814C8.9613 3.78093 8.66763 3.76968 8.64105 3.75318C8.61352 3.73609 8.58182 3.74088 8.56741 3.76431C8.53769 3.81261 7.38782 3.84923 7.35924 3.80278C7.3492 3.78645 7.31515 3.78305 7.28358 3.79522C7.2447 3.8102 7.23958 3.82567 7.26772 3.84313C7.29057 3.85732 7.25868 3.86892 7.19684 3.86892C7.13501 3.86892 7.08442 3.85295 7.08442 3.83341C7.08442 3.81388 7.05905 3.81905 7.02804 3.8449C6.99703 3.87075 6.95983 3.88001 6.94537 3.86548C6.9309 3.85096 6.96044 3.80745 7.01099 3.76879L7.10291 3.6985L7.01044 3.71636C6.92941 3.73201 6.92712 3.72985 6.99195 3.69891C7.09863 3.648 7.27394 3.65327 7.37671 3.71048C7.47688 3.76623 7.60227 3.74786 7.60227 3.67743C7.60227 3.64499 7.67531 3.63041 7.8427 3.62946C7.99356 3.62861 8.08314 3.64331 8.08314 3.66892C8.08314 3.69137 8.10394 3.68235 8.12937 3.64886C8.16277 3.60488 8.26292 3.58135 8.49002 3.56413C8.66295 3.55102 8.9095 3.5167 9.03791 3.48787C9.16632 3.45905 9.32445 3.43385 9.38931 3.43189C9.45417 3.42992 9.59046 3.40549 9.69218 3.37759C9.86561 3.33002 9.84603 3.32812 9.37777 3.34713C9.10312 3.35827 8.85344 3.36767 8.82293 3.368C8.79241 3.36834 8.40957 3.40781 7.97217 3.45571C7.53477 3.50361 7.0579 3.54791 6.91247 3.55415C6.76703 3.56039 6.65566 3.57803 6.66497 3.59336C6.67428 3.60869 6.61018 3.6213 6.52251 3.62137C6.43485 3.62137 6.21332 3.64575 6.03022 3.67535C5.71624 3.72612 4.97767 3.77847 5.07797 3.74284C5.10353 3.73377 5.11503 3.71105 5.10353 3.69236C5.09203 3.67368 5.12938 3.65758 5.18653 3.6566C5.24367 3.65564 5.34869 3.62309 5.41989 3.58431C5.4911 3.54554 5.58265 3.49822 5.62334 3.47916C5.75707 3.41652 7.93867 3.054 8.45303 3.00895C8.60561 2.99558 9.04671 2.95152 9.43325 2.91105C9.81979 2.87057 10.33 2.82123 10.567 2.8014C10.804 2.78157 11.078 2.74113 11.1759 2.71155C11.3045 2.67267 11.361 2.66924 11.3794 2.69919C11.4028 2.73717 11.7919 2.72677 12.2629 2.67559C12.3342 2.66785 12.5589 2.65108 12.7623 2.63831C13.1274 2.6154 13.6835 2.53833 13.9948 2.46752C14.0827 2.44752 14.1702 2.44083 14.1893 2.45265C14.2083 2.46447 14.466 2.4373 14.762 2.39227C15.1999 2.32564 15.3158 2.31887 15.3847 2.3559C15.454 2.39313 15.5427 2.38689 15.8728 2.32153C16.4224 2.21274 17.1396 2.07131 17.497 2.00123C17.6597 1.96932 17.8962 1.91949 18.0224 1.89051C18.1487 1.86153 18.3068 1.8379 18.3738 1.838C18.4408 1.838 18.5706 1.8141 18.6621 1.78467C18.8164 1.73508 19.1323 1.68002 19.9753 1.5558C20.4083 1.49199 20.4955 1.47726 20.937 1.39345C21.1404 1.35482 21.4733 1.29562 21.6768 1.26189C21.8802 1.22816 22.0966 1.19227 22.1576 1.18214C22.5895 1.11044 22.6718 1.11178 22.7577 1.19187C22.804 1.23508 22.8419 1.28942 22.8419 1.31262C22.8419 1.33582 22.8544 1.35282 22.8697 1.3504C22.8849 1.34801 22.9355 1.34801 22.982 1.3504C23.0526 1.35408 23.0604 1.36617 23.0295 1.42423C22.9842 1.50922 23.0204 1.55506 23.0882 1.49855C23.1645 1.43497 23.1471 1.49216 23.0594 1.59353C23.0133 1.6467 22.9209 1.69437 22.8358 1.70881C22.7116 1.72989 22.6974 1.74151 22.7372 1.78964C22.7969 1.86189 22.7465 1.86637 25.1168 1.57829C25.2795 1.55851 25.5708 1.5343 25.7641 1.5245C25.9574 1.51471 26.3069 1.48909 26.5409 1.46758C26.7748 1.44607 27.0828 1.42185 27.2252 1.41375C27.3676 1.40566 27.5499 1.38171 27.6304 1.36054C27.7108 1.33937 28.03 1.32102 28.3396 1.31976C28.6493 1.31851 28.9247 1.31003 28.9517 1.30092C29.0182 1.27845 29.885 1.23284 30.0912 1.24095C30.1824 1.24456 30.2825 1.27062 30.3136 1.2989C30.3833 1.36227 30.5609 1.36862 31.3865 1.33729C31.766 1.32289 32.1146 1.29014 32.229 1.25812C32.3784 1.21635 32.6261 1.20492 33.2832 1.20946C33.7557 1.21274 34.5417 1.20278 35.03 1.18736C36.0194 1.15611 35.9666 1.15576 36.9904 1.2004C37.6533 1.22931 38.0358 1.23051 38.618 1.20551C38.7197 1.20114 38.7738 1.18992 38.7382 1.18058C38.7026 1.17123 38.6734 1.14611 38.6734 1.12475C38.6734 1.09913 38.7773 1.09327 38.9786 1.10755C39.1465 1.11946 39.65 1.14614 40.0975 1.16685C40.5451 1.18756 41.1194 1.22166 41.3737 1.24262C42.3954 1.32684 42.785 1.35653 43.3156 1.39055C44.6427 1.47565 45.3423 1.50956 46.0713 1.52413C46.407 1.53084 46.8232 1.54772 46.9961 1.56164C47.169 1.57556 47.427 1.58545 47.5694 1.58362C47.7118 1.58182 47.9948 1.59673 48.1982 1.61683C48.4017 1.63693 49.0606 1.66074 49.6624 1.66974C50.2643 1.67874 50.8302 1.7024 50.92 1.72231C51.0099 1.74223 51.2142 1.76758 51.374 1.77865C51.5339 1.78972 51.717 1.80738 51.7809 1.81789C51.9996 1.85383 52.3411 1.87827 52.8404 1.89372C53.2801 1.90732 53.7074 1.93997 54.3385 2.0082C54.4402 2.01919 54.5817 2.03286 54.6529 2.03856C54.7241 2.04426 54.9072 2.05966 55.0598 2.07277C55.2124 2.08589 55.4704 2.10685 55.6331 2.11935C55.7958 2.13185 55.9373 2.14723 55.9475 2.15353C55.9577 2.15983 56.0607 2.17507 56.1764 2.18743C56.2921 2.19978 56.4111 2.21929 56.4409 2.23078C56.4707 2.24226 56.6424 2.25664 56.8224 2.26273C57.3168 2.27945 57.3162 2.27935 57.3162 2.3394C57.3162 2.37005 57.3338 2.39513 57.3553 2.39513C57.3769 2.39513 57.3825 2.37557 57.3677 2.35166C57.3495 2.32202 57.3616 2.31611 57.4056 2.33309C57.4411 2.34678 57.5069 2.35798 57.5517 2.35798C57.6068 2.35798 57.6351 2.38213 57.6389 2.43229C57.6455 2.52111 57.6255 2.52537 57.5513 2.45086C57.4739 2.37309 57.3873 2.37892 57.4133 2.46015C57.4261 2.50016 57.4221 2.5092 57.4029 2.48365C57.3816 2.45535 57.2774 2.45004 57.0757 2.46697C56.7286 2.49612 56.4666 2.4881 55.9845 2.43357C55.7913 2.41171 55.5416 2.38483 55.4297 2.37384C55.3178 2.36285 55.2068 2.34749 55.1831 2.33969C55.1593 2.33189 55.1302 2.35087 55.1184 2.38186C55.1024 2.42359 55.0673 2.43169 54.9829 2.41307C54.8504 2.38384 54.7653 2.37273 54.4125 2.33862C54.2701 2.32485 54.1436 2.30743 54.1314 2.29992C54.1055 2.28391 53.6107 2.28127 52.9329 2.29355C52.5028 2.30133 52.1996 2.28006 51.9733 2.22625C51.8458 2.19593 50.954 2.18281 50.954 2.21126C50.954 2.22589 51.0663 2.24994 51.2036 2.2647C51.341 2.27947 51.4866 2.29814 51.5273 2.3062C51.8127 2.36275 52.5771 2.42612 53.1918 2.44421C53.3342 2.4484 53.4683 2.46315 53.4899 2.47698C53.5256 2.49999 54.6583 2.5887 54.7191 2.57326C54.7335 2.56958 54.8702 2.57827 55.0228 2.59257C55.2587 2.61467 55.8611 2.65914 56.0123 2.66562C56.0669 2.66795 56.0734 2.71592 56.0232 2.74705C55.9872 2.7694 55.7084 2.77456 55.4561 2.75754C55.379 2.75235 55.3024 2.72609 55.2859 2.6992C55.2635 2.66281 55.2 2.65674 55.0376 2.67547C54.9176 2.68932 54.8082 2.70729 54.7946 2.71542C54.781 2.72356 54.7446 2.70484 54.7137 2.67385C54.6829 2.64285 54.6488 2.6318 54.638 2.64931C54.6172 2.68326 53.8706 2.6688 53.6542 2.63025C53.583 2.61756 53.4575 2.60374 53.3753 2.59952C53.2931 2.59531 53.189 2.57209 53.1441 2.54792C53.0787 2.51279 53.0624 2.51393 53.0624 2.55359C53.0624 2.58279 53.0129 2.60721 52.9421 2.61295C52.6497 2.63665 52.2403 2.63441 51.9157 2.60731C51.6822 2.58783 51.5825 2.59027 51.6187 2.61459C51.7645 2.71265 51.4909 2.76101 51.0649 2.71249C50.6872 2.66947 50.6197 2.6672 50.4565 2.69209C50.3723 2.70492 50.2542 2.70218 50.1941 2.686C50.0356 2.64336 49.2122 2.56786 48.8456 2.56235C48.6726 2.55975 48.423 2.54619 48.2907 2.53222C48.1585 2.51825 47.8922 2.49824 47.6989 2.48775C47.5056 2.47726 47.0479 2.4441 46.6817 2.41405C46.3155 2.38401 45.7708 2.34819 45.4713 2.33446C44.9832 2.31208 44.9242 2.31591 44.903 2.37137C44.8829 2.42411 44.8186 2.43301 44.4674 2.43166C44.2408 2.43081 43.9805 2.44364 43.889 2.46022L43.7225 2.49036L43.9999 2.53179C44.1525 2.55457 44.3356 2.57276 44.4068 2.5722C44.478 2.57159 44.7693 2.59707 45.0541 2.62872C45.339 2.66036 45.8799 2.70492 46.2563 2.72773C46.6327 2.75054 46.9776 2.77721 47.0229 2.78699C47.0681 2.79678 47.4427 2.82106 47.8551 2.84095C48.5965 2.8767 49.116 2.90588 49.5114 2.93398C49.6233 2.94193 50.0071 2.96537 50.3644 2.98607C50.7216 3.00677 51.0379 3.03114 51.0672 3.04024C51.0965 3.04934 51.1537 3.06943 51.1944 3.08489C51.2351 3.10034 51.3324 3.11763 51.4106 3.1233C51.4888 3.12898 51.5721 3.16013 51.5957 3.19253C51.6297 3.23931 51.7261 3.25342 52.0638 3.26105C52.2977 3.26633 52.5057 3.28094 52.526 3.2935C52.5464 3.30606 52.6878 3.32615 52.8404 3.33814C53.5698 3.39547 54.299 3.44203 54.6344 3.4527C54.8379 3.45917 55.2706 3.49366 55.5961 3.52935C55.9216 3.56503 56.3378 3.59978 56.5209 3.60656C57.7881 3.6535 58.8003 3.71262 59.3321 3.77077C59.5152 3.79078 59.8361 3.81792 60.0453 3.83106C60.2544 3.8442 60.4343 3.86925 60.4451 3.88671C60.4558 3.90418 60.4095 3.91983 60.3422 3.92149C60.2749 3.92317 60.1728 3.92794 60.1154 3.93213C60.058 3.93631 60.0037 3.92798 59.9949 3.91361C59.986 3.89923 59.9173 3.90453 59.8421 3.92538C59.7658 3.94653 59.5985 3.95244 59.4633 3.93875C59.3301 3.92526 58.6219 3.90768 57.8895 3.89968C57.1571 3.89168 56.2832 3.87434 55.9475 3.86115C55.3492 3.83763 55.1797 3.85201 55.5722 3.89299C55.681 3.90436 55.7782 3.92175 55.788 3.93164C55.8144 3.95813 55.6791 4.0237 55.5669 4.03879C55.4362 4.05637 55.395 4.10344 55.5067 4.10747C55.5559 4.10925 55.8125 4.12628 56.077 4.14532C56.3415 4.16437 56.8616 4.18983 57.2329 4.20191C57.8433 4.22175 57.908 4.2301 57.908 4.28898C57.908 4.3707 58.0569 4.39002 58.9543 4.42477C59.3162 4.43878 59.621 4.46435 59.6316 4.48159C59.6422 4.49884 59.7238 4.51295 59.8129 4.51295C60.1168 4.51295 60.0316 4.61554 59.6584 4.69913C59.553 4.72272 59.4115 4.73894 59.3439 4.73518C58.8934 4.7101 59.0116 4.78326 59.517 4.84232C59.7205 4.8661 60.0034 4.89365 60.1458 4.90355C60.2883 4.91345 60.5463 4.93821 60.7192 4.95858C60.8921 4.97895 61.2417 5.00664 61.496 5.02011C61.8091 5.03671 61.9703 5.06033 61.9953 5.0933C62.0158 5.12028 62.1478 5.15278 62.2912 5.16618C62.4336 5.17949 62.5668 5.21079 62.5872 5.23574C62.6075 5.26069 62.7457 5.29238 62.8943 5.30617C63.0429 5.31995 63.2018 5.35579 63.2474 5.3858C63.2996 5.42019 63.4596 5.44642 63.68 5.45672C64.1553 5.47894 64.5276 5.5208 64.5483 5.55435C64.57 5.5896 64.2461 5.63996 64.1963 5.60907C64.1759 5.5964 64.1592 5.60189 64.1592 5.62125C64.1592 5.64062 64.2175 5.66745 64.2887 5.68086C64.4293 5.70735 64.4558 5.75357 64.3534 5.79345C64.2325 5.84052 64.4017 5.91507 64.782 5.98232C65.1014 6.03881 65.3032 6.10862 65.1561 6.11172C65.0178 6.11463 65.2313 6.18013 65.4535 6.20297C65.5854 6.21652 65.7127 6.24375 65.7364 6.26346C65.76 6.28317 65.8846 6.31633 66.0133 6.33714C66.3708 6.39497 66.3669 6.44144 66.0022 6.47023C65.866 6.48099 65.7414 6.51286 65.7039 6.54654C65.6514 6.59381 65.5871 6.59946 65.3525 6.57746C64.8756 6.53271 64.7811 6.54142 64.7096 6.63674C64.6745 6.68339 64.6531 6.73326 64.6618 6.74755C64.6706 6.76184 64.79 6.78524 64.9271 6.79954C65.0642 6.81385 65.1931 6.83867 65.2134 6.85471C65.2338 6.87076 65.3295 6.8957 65.4261 6.91015C65.6913 6.94981 65.6369 7.0023 65.3305 7.0023C65.1813 7.0023 65.0467 7.01484 65.0313 7.03016C65.0159 7.04549 64.8607 7.05803 64.6865 7.05803C64.4662 7.05803 64.3649 7.07217 64.3539 7.10447C64.343 7.1363 64.3826 7.15098 64.4798 7.15112C64.5578 7.15119 64.6798 7.16667 64.751 7.18541C64.8222 7.20416 65.0214 7.23007 65.1936 7.243C65.3658 7.25593 65.5255 7.28215 65.5484 7.30128C65.5713 7.3204 65.5998 7.3263 65.6117 7.3144C65.6235 7.30249 65.6719 7.30664 65.7192 7.32362C65.7856 7.34745 65.7462 7.35987 65.5463 7.37815C65.3104 7.39971 65.0413 7.45393 64.899 7.5086C64.8087 7.54329 64.9491 7.58141 65.3706 7.63661C65.5791 7.66391 65.7498 7.69617 65.7498 7.70829C65.7498 7.72041 65.858 7.72341 65.9902 7.71496C66.1834 7.7026 66.2306 7.71024 66.2306 7.75388C66.2306 7.82123 66.1135 7.93136 66.0428 7.93059C65.9993 7.93012 65.9998 7.9238 66.0456 7.89401C66.0929 7.86336 66.0913 7.85791 66.0352 7.85742C65.999 7.85709 65.9594 7.8828 65.9473 7.91451C65.9285 7.96364 65.8617 7.9693 65.4953 7.95274C65.0363 7.932 64.9235 7.95659 65.0081 8.05894C65.1497 8.23036 65.7273 8.41417 66.1243 8.41417C66.3642 8.41417 66.4895 8.45923 66.4895 8.54552C66.4895 8.58871 66.4303 8.59976 66.2028 8.59906C66.0452 8.59859 65.8496 8.58056 65.7682 8.55904C65.6868 8.53752 65.3034 8.51233 64.9162 8.50308C64.2314 8.4867 64.2119 8.48829 64.2065 8.56094C64.2011 8.63239 64.2463 8.68385 64.3256 8.69675C64.346 8.70005 64.5056 8.72982 64.6802 8.76288C65.252 8.87109 65.7596 8.937 66.2792 8.9705C66.7605 9.00153 66.9247 9.04408 66.8749 9.12492C66.8636 9.14338 66.8384 9.1486 66.8189 9.13653C66.7995 9.12446 66.7882 9.13673 66.7938 9.16379C66.7994 9.191 66.7752 9.21072 66.7396 9.2079C66.7042 9.2051 66.6833 9.2158 66.693 9.23169C66.7028 9.24758 66.6543 9.27122 66.5852 9.28424C66.436 9.31237 66.4006 9.37934 66.477 9.48898C66.5178 9.54741 66.5221 9.58224 66.493 9.61742C66.4454 9.6751 66.4765 9.71458 66.5697 9.71458C66.607 9.71458 66.6375 9.72157 66.6375 9.73012C66.6375 9.73866 66.6485 9.77458 66.662 9.80993C66.6846 9.86897 66.6597 9.87219 66.3569 9.84956C66.1755 9.83601 65.9647 9.81498 65.8884 9.80284C65.778 9.78527 65.7497 9.79259 65.7497 9.83871C65.7497 9.87058 65.7229 9.91174 65.6901 9.93017C65.6054 9.97777 65.6563 10.1919 65.7625 10.2349C65.8384 10.2656 65.8387 10.2674 65.7682 10.2722C65.6942 10.2771 65.6942 10.2771 65.7682 10.3091C65.8404 10.3402 65.7396 10.3535 65.3613 10.3628C65.2036 10.3667 65.0839 10.4167 65.0839 10.4788C65.0839 10.5119 65.0456 10.5322 64.9822 10.5325C64.9262 10.5328 64.8426 10.5432 64.7964 10.5556C64.7175 10.5768 64.7164 10.5814 64.7779 10.6282C64.814 10.6557 64.889 10.6788 64.9447 10.6794C65.0003 10.6801 65.1557 10.7391 65.2899 10.8106C65.4253 10.8828 65.5878 10.9407 65.6549 10.9407C65.8791 10.9407 66.2287 10.988 66.2115 11.016C66.2021 11.0313 66.2227 11.0415 66.2573 11.0387C66.2919 11.0359 66.3262 11.0624 66.3334 11.0976C66.3502 11.1793 66.1318 11.3203 66.0192 11.3004C65.9741 11.2924 65.9312 11.3041 65.9238 11.3264C65.9064 11.379 65.4747 11.3938 65.302 11.3478C65.2287 11.3283 64.85 11.3077 64.4605 11.3022C63.802 11.2928 63.6078 11.3118 63.854 11.3615C63.91 11.3727 64.0306 11.399 64.1222 11.4198C64.2137 11.4406 64.3594 11.4583 64.4458 11.4592C64.5323 11.4601 64.603 11.4776 64.603 11.498C64.603 11.5184 64.6291 11.5352 64.661 11.5352C64.6928 11.5352 64.7531 11.5535 64.7948 11.576C64.8699 11.6163 64.8698 11.6173 64.7831 11.6607C64.6314 11.7367 64.6784 11.8083 64.9334 11.8898C65.0643 11.9316 65.1791 11.9901 65.1886 12.0198C65.1982 12.0496 65.2207 12.0836 65.2387 12.0954C65.2952 12.1327 65.2275 12.2474 65.1635 12.2227C65.1311 12.2102 65.1149 12.2103 65.1274 12.2228C65.1398 12.2354 65.1081 12.2878 65.0568 12.3393C64.9893 12.407 64.9198 12.4346 64.8053 12.4391C64.7182 12.4425 64.6537 12.4562 64.6619 12.4695C64.6701 12.4829 64.5176 12.4856 64.3229 12.4756C64.0398 12.4611 63.9564 12.4687 63.9068 12.5137C63.8379 12.5763 63.4747 12.6021 63.2852 12.5579C63.2128 12.541 63.16 12.5462 63.1443 12.5718C63.1304 12.5942 63.0798 12.6126 63.0318 12.6126C62.9205 12.6126 62.8275 12.6483 62.8275 12.6909C62.8275 12.7092 62.8517 12.7241 62.8812 12.7241C62.9107 12.7241 62.949 12.7495 62.9662 12.7804C62.9857 12.8154 63.1303 12.8627 63.3472 12.9051C63.7746 12.9886 64.0892 13.1163 64.0594 13.1942C64.048 13.2241 64.015 13.2394 63.986 13.2283C63.9571 13.2171 63.9427 13.2231 63.9541 13.2416C63.9654 13.26 63.9311 13.3272 63.8777 13.3909C63.8064 13.4761 63.7612 13.5004 63.7064 13.4829C63.6652 13.4698 63.6413 13.4743 63.6529 13.4931C63.6643 13.5117 63.6158 13.5286 63.545 13.5306C63.4743 13.5326 63.2996 13.563 63.1568 13.5982L62.8971 13.6621L62.9798 13.7504C63.0252 13.799 63.0778 13.8387 63.0966 13.8387C63.1154 13.8387 63.1879 13.866 63.2577 13.8993C63.3795 13.9573 63.3824 13.9633 63.3285 14.0459C63.293 14.1002 63.286 14.1406 63.3094 14.1552C63.3299 14.1679 63.3359 14.1956 63.3229 14.2168C63.3076 14.2417 63.2877 14.2375 63.2668 14.205C63.2458 14.1723 63.2247 14.1679 63.2067 14.1925C63.1914 14.2133 63.129 14.2546 63.068 14.2841L62.957 14.3379L63.0741 14.3505C63.2008 14.3642 63.2686 14.4595 63.1767 14.4949C63.1457 14.5069 63.1111 14.5075 63.0998 14.4962C63.0886 14.4849 63.024 14.5069 62.9563 14.5451C62.8885 14.5833 62.7699 14.6265 62.6926 14.6411C62.6152 14.6556 62.5296 14.6901 62.5022 14.7176C62.4373 14.7828 62.4119 14.7813 62.0682 14.693C61.7597 14.6138 61.6728 14.6212 61.5462 14.7374C61.4748 14.8029 61.446 14.8061 61.2528 14.7702C60.9993 14.7232 60.5216 14.7171 60.5488 14.7614C60.5593 14.7784 60.6893 14.8131 60.8377 14.8385C61.2158 14.9032 61.2584 14.9172 61.1963 14.9557C61.0886 15.0225 61.5706 15.1802 62.0416 15.2323C62.1688 15.2464 62.2809 15.271 62.2908 15.2871C62.3006 15.3031 62.2738 15.3608 62.2311 15.4153C62.1595 15.5068 62.1581 15.5194 62.2131 15.5805C62.2459 15.6168 62.2727 15.6557 62.2727 15.6669C62.2727 15.7128 61.6463 15.6468 61.4404 15.5791C61.1444 15.4819 60.5448 15.4109 60.4894 15.4665C60.4601 15.4959 60.4599 15.5212 60.4885 15.5559C60.5272 15.6027 60.5865 15.6227 61.0798 15.7555C61.2336 15.7969 61.311 15.8364 61.311 15.8737C61.311 15.9207 61.2673 15.9257 61.0365 15.9047C60.8607 15.8887 60.7536 15.8935 60.7384 15.9181C60.7254 15.9393 60.7351 15.9566 60.7601 15.9566C60.785 15.9566 60.7968 15.9652 60.7863 15.9758C60.7615 16.0007 60.2376 15.8903 60.1855 15.8491C60.1446 15.8168 59.6044 15.7333 59.4892 15.7414C59.4536 15.7439 59.4245 15.7669 59.4245 15.7925C59.4245 15.8181 59.4159 15.8615 59.4054 15.8891C59.3872 15.9367 59.8389 16.0329 60.6173 16.1472C60.7343 16.1644 60.8903 16.2037 60.964 16.2347C61.0377 16.2656 61.1501 16.291 61.2138 16.2912C61.3813 16.2915 61.6219 16.365 61.583 16.4041C61.565 16.4222 61.3398 16.4417 61.0824 16.4475C60.8251 16.4534 60.6174 16.461 60.6207 16.4644C60.6241 16.4679 60.7091 16.5032 60.8097 16.5429C60.9847 16.6119 60.9889 16.6169 60.9089 16.6599C60.8463 16.6936 60.7793 16.6949 60.641 16.6651C60.4159 16.6166 60.3862 16.6159 60.3862 16.6595C60.3862 16.6783 60.436 16.7047 60.4968 16.7181C60.699 16.7627 60.6552 16.8111 60.4126 16.8111C60.2714 16.8111 60.1286 16.8347 60.0593 16.8694C59.9891 16.9046 59.9104 16.9174 59.861 16.9016C59.7555 16.868 58.0188 16.8552 58.0391 16.8882C58.0821 16.9581 57.5969 16.9578 57.1828 16.8875C56.3443 16.7453 55.6309 16.6645 55.1707 16.6596C54.9164 16.6568 54.5336 16.6316 54.32 16.6035C54.1063 16.5755 53.7258 16.5353 53.4743 16.5142C53.2228 16.4931 53.0064 16.4694 52.9934 16.4616C52.9804 16.4537 52.845 16.4366 52.6924 16.4236C52.5398 16.4105 52.3567 16.3928 52.2855 16.3841C52.1373 16.3661 51.4624 16.3284 50.9724 16.3106C50.6179 16.2978 50.0793 16.2636 49.7148 16.2308C49.5927 16.2198 49.1183 16.2037 48.6606 16.195C48.2028 16.1863 47.6618 16.1655 47.4584 16.1487C47.255 16.132 46.6923 16.1199 46.2081 16.1219C45.4757 16.125 45.3217 16.1349 45.2926 16.1804C45.2628 16.2269 45.2525 16.2273 45.2243 16.1833C45.2021 16.1488 45.1545 16.1388 45.0817 16.1534C45.0215 16.1656 44.9542 16.1572 44.9319 16.1347C44.9096 16.1124 44.8365 16.0905 44.7693 16.0862C44.7022 16.0819 44.6139 16.0685 44.5732 16.0564C44.3516 15.9905 44.1206 15.9713 44.0275 16.0111C43.9529 16.0431 43.7664 16.0053 43.7922 15.9634C43.8017 15.948 43.6234 15.9309 43.3961 15.9254C42.7838 15.9106 42.7203 15.9039 42.651 15.8461C42.5947 15.7991 42.5891 15.8013 42.6002 15.8656C42.6087 15.9146 42.5949 15.9337 42.5573 15.9247C42.5268 15.9175 42.4644 15.9112 42.4186 15.9108C42.3728 15.9104 42.3354 15.8972 42.3354 15.8815C42.3354 15.8658 42.3085 15.8427 42.2758 15.83C42.2325 15.8133 42.2222 15.823 42.2383 15.8651C42.2536 15.9052 42.2463 15.9141 42.2147 15.894C42.1895 15.8779 42.0108 15.8595 41.8175 15.8531C41.4111 15.8396 41.4715 15.8397 39.5611 15.8465C38.7576 15.8494 37.9971 15.8396 37.8714 15.8249C37.7456 15.8101 37.6147 15.8088 37.5805 15.822C37.5175 15.8463 36.3092 15.8942 35.9379 15.8871C35.6476 15.8816 35.3183 16.053 35.5015 16.1144C35.5288 16.1235 35.5099 16.1498 35.4552 16.1788C35.4044 16.2057 35.3536 16.2418 35.3423 16.2591C35.3015 16.3214 34.9874 16.3562 34.8982 16.3082C34.842 16.278 34.6931 16.2672 34.4589 16.2762C34.264 16.2838 33.6239 16.2988 33.0364 16.3095C32.449 16.3203 31.9279 16.3393 31.8785 16.3518C31.8291 16.3642 31.6191 16.377 31.4119 16.3801C31.2046 16.3832 31.0018 16.4046 30.9611 16.4276C30.8883 16.4687 30.5452 16.5361 30.4878 16.5206C30.417 16.5015 30.2856 16.5063 30.1658 16.5324C30.0946 16.5479 30.0031 16.5577 29.9624 16.5543C29.9217 16.5509 29.8551 16.5451 29.8144 16.5415C29.7737 16.5379 29.5823 16.5546 29.389 16.5786C29.1958 16.6026 28.9657 16.6219 28.8777 16.6215C28.7898 16.6211 28.6982 16.6365 28.6743 16.6559C28.6503 16.6752 28.5767 16.7026 28.5105 16.7168C28.4121 16.738 28.3903 16.7312 28.3903 16.6798C28.3903 16.6241 28.3597 16.6199 28.1221 16.6432C27.9747 16.6577 27.5876 16.6733 27.2621 16.678C26.9366 16.6828 26.5806 16.7063 26.4711 16.7303C26.3615 16.7543 26.2637 16.7739 26.2538 16.7739C26.244 16.7739 26.2566 16.799 26.2819 16.8296C26.3072 16.8603 26.3842 16.8854 26.4529 16.8854C26.5216 16.8854 26.5778 16.8924 26.5778 16.9009C26.5778 16.9094 26.5879 16.9429 26.6003 16.9752C26.6311 17.0558 26.5269 17.0518 26.4447 16.9693C26.3982 16.9225 26.3761 16.9174 26.365 16.9509C26.3565 16.9764 26.3344 16.9878 26.3157 16.9763C26.2971 16.9647 26.2819 16.9688 26.2819 16.9853C26.2819 17.0019 26.2445 17.0175 26.1987 17.02C26.1529 17.0225 25.8991 17.0434 25.6346 17.0666C25.3701 17.0897 24.8375 17.1153 24.4509 17.1235C24.0644 17.1317 23.7065 17.1475 23.6557 17.1588C23.4833 17.1967 22.5359 17.2847 22.0281 17.31C21.0873 17.3567 20.3741 17.4919 20.227 17.6513C20.181 17.7011 20.0999 17.7414 20.0417 17.7433C19.563 17.7589 18.8983 17.809 18.6066 17.8514C18.4845 17.8691 18.2704 17.8939 18.1307 17.9064C17.9911 17.919 17.7932 17.9452 17.6911 17.9646C17.5889 17.9841 17.4993 18 17.4919 18C17.4845 18 17.4784 17.9573 17.4784 17.905ZM17.4784 17.5669C17.4784 17.5263 17.4621 17.5232 17.4058 17.5535C17.3625 17.5768 17.3419 17.6151 17.3547 17.6486C17.3712 17.6918 17.3878 17.6949 17.4273 17.6621C17.4554 17.6386 17.4784 17.5958 17.4784 17.5669ZM23.7112 17.0143C23.8559 16.9622 23.8522 16.9614 23.5447 16.9795C22.8405 17.021 22.62 17.042 22.62 17.0676C22.62 17.1161 23.5555 17.0704 23.7112 17.0143ZM6.52955 16.5656C6.52955 16.5576 6.50458 16.551 6.47406 16.551C6.44355 16.551 6.41858 16.5672 6.41858 16.587C6.41858 16.6068 6.44355 16.6134 6.47406 16.6016C6.50458 16.5899 6.52955 16.5737 6.52955 16.5656ZM9.21128 16.4396C9.2242 16.4186 9.1939 16.4024 9.14167 16.4024C9.09081 16.4024 9.03891 16.4191 9.02634 16.4396C9.01343 16.4606 9.04372 16.4767 9.09595 16.4767C9.14681 16.4767 9.19871 16.46 9.21128 16.4396ZM7.45428 16.2495C7.45428 16.2111 7.40999 16.2075 7.32785 16.2392C7.23503 16.275 7.25994 16.3196 7.36181 16.3C7.41267 16.2903 7.45428 16.2675 7.45428 16.2495ZM28.3843 16.2434C28.5105 16.2081 28.5278 16.1945 28.4656 16.1797C28.3669 16.1562 27.1901 16.2059 26.5594 16.2602C26.388 16.2749 27.7115 16.3109 27.9834 16.2989C28.1157 16.2931 28.2961 16.2681 28.3843 16.2434ZM29.6665 16.1291C29.7072 16.1194 29.6323 16.1129 29.5 16.1145C29.1844 16.1185 29.0595 16.1526 29.2596 16.1802C29.341 16.1914 29.4492 16.1885 29.5 16.1736C29.5509 16.1588 29.6258 16.1387 29.6665 16.1291ZM6.06096 16.14C6.13712 16.1378 6.13662 16.1358 6.0511 16.1015C5.95025 16.061 5.86374 16.0812 5.86374 16.1452C5.86374 16.1685 5.89001 16.1773 5.92225 16.1649C5.95442 16.1525 6.01685 16.1413 6.06096 16.14ZM30.2221 16.0982C30.232 16.0882 30.1662 16.0773 30.0758 16.0739C29.9855 16.0704 29.9 16.0863 29.886 16.1091C29.868 16.1383 29.9115 16.1456 30.0323 16.1335C30.1268 16.124 30.2123 16.1081 30.2221 16.0982ZM59.1471 15.6593C59.1613 15.6363 59.1022 15.6239 58.9921 15.6266C58.8342 15.6305 58.8266 15.6342 58.9252 15.6593C59.087 15.7007 59.1216 15.7007 59.1471 15.6593ZM2.13473 15.1138C2.10803 15.1031 2.07613 15.1044 2.06384 15.1167C2.05155 15.1291 2.07339 15.1379 2.11239 15.1362C2.15548 15.1345 2.16424 15.1256 2.13473 15.1138ZM2.57167 15.0649C2.64601 15.0409 2.64964 15.0349 2.59017 15.034C2.54948 15.0334 2.4829 15.0473 2.44221 15.0649C2.34795 15.1055 2.4452 15.1055 2.57167 15.0649ZM3.068 15.0795C3.10019 15.0671 3.12651 15.0269 3.12651 14.9901C3.12651 14.9332 3.10325 14.9262 2.96931 14.943C2.79934 14.9644 2.68843 15.0277 2.82102 15.0277C2.86457 15.0277 2.9105 15.0444 2.92307 15.0649C2.94938 15.1076 2.9855 15.1113 3.068 15.0795ZM63.1605 14.4332C63.1605 14.4128 63.1313 14.3963 63.0957 14.3966C63.0404 14.3971 63.0391 14.4025 63.0865 14.4332C63.1563 14.4785 63.1605 14.4785 63.1605 14.4332ZM3.98421 12.9217C3.95751 12.9109 3.9256 12.9123 3.91331 12.9246C3.90102 12.937 3.92287 12.9457 3.96186 12.9441C4.00495 12.9423 4.01371 12.9335 3.98421 12.9217ZM3.68136 12.8133C3.68136 12.7527 3.57848 12.7459 3.44333 12.7975C3.2962 12.8537 3.33112 12.8932 3.5149 12.8786C3.62657 12.8696 3.68136 12.8482 3.68136 12.8133ZM4.36842 12.8401C4.33149 12.78 4.19921 12.7647 4.19921 12.8205C4.19921 12.8518 4.23719 12.8727 4.29387 12.8727C4.34593 12.8727 4.37948 12.858 4.36842 12.8401ZM4.08824 12.7984C4.12951 12.7716 4.10819 12.7623 4.00501 12.7619C3.92872 12.7615 3.8663 12.778 3.8663 12.7984C3.8663 12.8458 4.01534 12.8458 4.08824 12.7984ZM65.7497 8.45136C65.7497 8.43092 65.7331 8.41421 65.7127 8.41421C65.6924 8.41421 65.6757 8.43092 65.6757 8.45136C65.6757 8.47179 65.6924 8.48851 65.7127 8.48851C65.7331 8.48851 65.7497 8.47179 65.7497 8.45136ZM66.0179 7.75797C65.9925 7.74766 65.9509 7.74766 65.9254 7.75797C65.9 7.76828 65.9208 7.77671 65.9717 7.77671C66.0225 7.77671 66.0433 7.76828 66.0179 7.75797ZM65.4631 7.3105C65.4173 7.30165 65.3424 7.30165 65.2966 7.3105C65.2508 7.31936 65.2883 7.3266 65.3798 7.3266C65.4714 7.3266 65.5088 7.31936 65.4631 7.3105ZM63.7523 7.01056C63.7523 6.99466 63.615 6.96181 63.4471 6.93758C63.2793 6.91335 63.1019 6.88193 63.053 6.86776C62.9977 6.85177 62.9725 6.85594 62.9866 6.87877C62.999 6.89899 63.1556 6.9368 63.3345 6.9628C63.5134 6.9888 63.6765 7.01537 63.6968 7.02184C63.7171 7.02833 63.738 7.03494 63.743 7.03655C63.7481 7.03816 63.7523 7.02647 63.7523 7.01056ZM9.80312 6.66794C9.86917 6.63943 9.86644 6.63573 9.77756 6.6334C9.72281 6.63196 9.66773 6.64751 9.65516 6.66794C9.62787 6.7123 9.70035 6.7123 9.80312 6.66794ZM63.4934 6.45026C63.4934 6.43271 63.3263 6.39927 63.1221 6.37595C62.6623 6.32343 62.5797 6.32237 62.6267 6.36959C62.6464 6.38941 62.8453 6.42052 63.0687 6.43871C63.2921 6.4569 63.479 6.47412 63.4841 6.47698C63.4892 6.47984 63.4934 6.46781 63.4934 6.45026ZM7.72789 6.00535C7.73837 5.98832 7.72272 5.97439 7.69309 5.97439C7.66347 5.97439 7.63923 5.98832 7.63923 6.00535C7.63923 6.02238 7.65489 6.03632 7.67404 6.03632C7.69318 6.03632 7.71742 6.02238 7.72789 6.00535ZM12.6767 5.93663C12.65 5.92589 12.6181 5.92721 12.6058 5.93955C12.5935 5.9519 12.6154 5.96068 12.6544 5.95907C12.6975 5.95728 12.7062 5.94849 12.6767 5.93663ZM6.93643 5.8877C6.93643 5.86726 6.9073 5.8508 6.8717 5.85111C6.81638 5.85158 6.81503 5.85691 6.86245 5.8877C6.93226 5.93301 6.93643 5.93301 6.93643 5.8877ZM7.08439 5.82977C7.08439 5.82076 7.06774 5.81339 7.0474 5.81339C7.02706 5.81339 7.01041 5.83109 7.01041 5.85274C7.01041 5.87438 7.02706 5.88175 7.0474 5.86912C7.06774 5.85649 7.08439 5.83879 7.08439 5.82977ZM9.19279 5.57108C9.24365 5.5568 9.40178 5.53116 9.54419 5.5141C9.6866 5.49705 9.86138 5.46542 9.93258 5.44382C10.0038 5.42222 10.062 5.40595 10.062 5.40766C10.062 5.4219 10.3154 5.34239 10.4412 5.28869C10.632 5.2072 10.6441 5.14461 10.4689 5.14461C10.3785 5.14461 10.3395 5.1278 10.3395 5.08888C10.3395 5.03174 10.505 5.00915 10.7798 5.02879C10.8995 5.03735 11.2411 4.97331 11.3193 4.92765C11.3777 4.89355 11.1911 4.8551 10.9476 4.85108C10.7891 4.84845 10.6542 4.87462 10.4874 4.94026C10.3576 4.99135 10.2172 5.0334 10.1752 5.03371C10.1145 5.03418 10.11 5.04123 10.1528 5.06841C10.1823 5.08719 10.2197 5.0943 10.236 5.08423C10.2522 5.07415 10.2655 5.08173 10.2655 5.10104C10.2655 5.13431 10.1845 5.1578 9.902 5.2065C9.83431 5.21817 9.76995 5.25124 9.75897 5.27999C9.74264 5.32274 9.7284 5.32364 9.6809 5.28489C9.63225 5.2452 9.62635 5.24701 9.6446 5.29604C9.66053 5.33887 9.645 5.35292 9.58679 5.34838C9.54302 5.34497 9.45197 5.35734 9.38446 5.37588C9.29935 5.39925 9.24549 5.39605 9.20876 5.36543C9.17898 5.3406 9.1558 5.33732 9.1558 5.35794C9.1558 5.39893 8.87396 5.51615 8.77542 5.51615C8.7405 5.51615 8.71193 5.53901 8.71193 5.56695C8.71193 5.60477 8.76153 5.6151 8.90612 5.6074C9.01293 5.6017 9.14193 5.58536 9.19279 5.57108ZM10.7144 4.22363C10.6877 4.21469 10.6483 4.22504 10.6268 4.24664C10.5994 4.27421 10.6138 4.27905 10.6753 4.26288C10.7254 4.24975 10.7421 4.23291 10.7144 4.22363ZM55.3926 4.07642C55.3926 4.06109 55.342 4.045 55.2803 4.04065C55.2161 4.03613 55.1775 4.04805 55.1901 4.06852C55.2159 4.11043 55.3927 4.11733 55.3926 4.07642ZM10.8203 3.84235L10.9128 3.83949L10.8265 3.80475C10.729 3.76551 10.5614 3.79574 10.5614 3.85256C10.5614 3.87328 10.5986 3.88001 10.6446 3.86762C10.6904 3.85529 10.7695 3.84393 10.8203 3.84235ZM55.0967 3.85039C55.0967 3.83336 55.0718 3.81943 55.0413 3.81943C55.0108 3.81943 54.9858 3.83336 54.9858 3.85039C54.9858 3.86742 55.0108 3.88135 55.0413 3.88135C55.0718 3.88135 55.0967 3.86742 55.0967 3.85039ZM55.2516 3.85597C55.2249 3.84524 55.193 3.84656 55.1807 3.8589C55.1685 3.87125 55.1903 3.88003 55.2293 3.87842C55.2724 3.87664 55.2811 3.86783 55.2516 3.85597ZM11.4561 3.78166C11.4294 3.77093 11.3975 3.77225 11.3852 3.78459C11.3729 3.79694 11.3947 3.80572 11.4337 3.8041C11.4768 3.80233 11.4856 3.79352 11.4561 3.78166ZM7.30633 3.73273C7.30633 3.7123 7.28968 3.69558 7.26934 3.69558C7.24899 3.69558 7.23235 3.7123 7.23235 3.73273C7.23235 3.75317 7.24899 3.76989 7.26934 3.76989C7.28968 3.76989 7.30633 3.75317 7.30633 3.73273ZM8.26805 3.6353C8.26805 3.59367 8.19859 3.63017 8.17869 3.68226C8.15921 3.73325 8.16462 3.73555 8.21172 3.69628C8.2427 3.67046 8.26805 3.64301 8.26805 3.6353ZM8.63795 3.63985C8.63795 3.6092 8.6314 3.58412 8.62341 3.58412C8.61541 3.58412 8.59929 3.6092 8.58758 3.63985C8.57587 3.6705 8.58241 3.69558 8.60212 3.69558C8.62182 3.69558 8.63795 3.6705 8.63795 3.63985ZM57.0641 2.36979C57.0374 2.35906 57.0055 2.36038 56.9932 2.37272C56.9809 2.38507 57.0028 2.39385 57.0418 2.39223C57.0849 2.39046 57.0936 2.38165 57.0641 2.36979ZM23.0068 1.61749C23.0185 1.59847 23.0129 1.57348 22.9943 1.56197C22.9758 1.55046 22.9511 1.56603 22.9394 1.59656C22.9164 1.65675 22.972 1.67402 23.0068 1.61749ZM5.44951 17.5635C5.42822 17.538 5.42533 17.5165 5.44308 17.5159C5.46083 17.5153 5.44422 17.4966 5.40618 17.4744C5.30859 17.4175 5.39504 17.3687 5.58632 17.3727C5.68621 17.3748 5.71024 17.3837 5.6603 17.4C5.58982 17.423 5.53728 17.5176 5.59556 17.5165C5.70417 17.5146 5.78261 17.466 5.76568 17.4112C5.74916 17.3577 5.75357 17.3582 5.80006 17.4149C5.86324 17.4919 6.14472 17.5061 6.16905 17.4335C6.18141 17.3966 6.19645 17.3968 6.24211 17.4347C6.31412 17.4944 6.35661 17.6394 6.29545 17.6167C6.27162 17.6079 6.25752 17.5781 6.26411 17.5506C6.27249 17.5156 6.25551 17.5193 6.20764 17.5628C6.15297 17.6125 6.07363 17.6235 5.8137 17.6175C5.607 17.6127 5.47409 17.593 5.44951 17.5635ZM4.94174 17.4816C4.89247 17.451 4.91616 17.3684 4.97421 17.3684C5.01641 17.3684 5.05345 17.4733 5.01884 17.4948C5.0035 17.5044 4.96881 17.4984 4.94174 17.4816ZM5.72436 17.1827C5.68345 17.1169 5.68772 17.1077 5.7617 17.1027C5.80765 17.0996 5.87021 17.0943 5.90073 17.091C5.9994 17.0802 6.01796 17.1141 5.95289 17.1864C5.87068 17.2776 5.7825 17.2762 5.72436 17.1827ZM28.1314 16.9062C28.1314 16.8972 28.1481 16.8795 28.1684 16.8668C28.1887 16.8542 28.2054 16.8616 28.2054 16.8832C28.2054 16.9049 28.1887 16.9226 28.1684 16.9226C28.1481 16.9226 28.1314 16.9152 28.1314 16.9062ZM28.5654 16.8808C28.5905 16.8554 28.6204 16.844 28.6317 16.8554C28.6431 16.8669 28.6226 16.8877 28.5861 16.9016C28.5334 16.9218 28.5292 16.9175 28.5654 16.8808ZM8.71193 16.7785C8.71193 16.7606 8.7376 16.7245 8.76898 16.6983C8.81333 16.6614 8.8359 16.6607 8.87039 16.6953C8.90488 16.73 8.90247 16.7477 8.85958 16.7749C8.78982 16.8192 8.71193 16.8211 8.71193 16.7785ZM50.4731 16.4396C50.4731 16.4191 50.497 16.4024 50.5264 16.4024C50.5557 16.4024 50.59 16.4191 50.6025 16.4396C50.6151 16.46 50.5911 16.4767 50.5492 16.4767C50.5073 16.4767 50.4731 16.46 50.4731 16.4396ZM49.8442 16.4001C49.8442 16.3578 49.9436 16.3535 49.969 16.3947C49.9789 16.4109 49.9549 16.4266 49.9157 16.4296C49.8764 16.4325 49.8442 16.4193 49.8442 16.4001ZM13.1615 16.3402C13.1283 16.253 13.179 16.2402 13.3068 16.3035C13.3735 16.3366 13.4114 16.3661 13.3911 16.3692C13.2352 16.3927 13.1789 16.3856 13.1615 16.3402ZM45.1466 16.2538C45.1466 16.2334 45.1539 16.2166 45.1629 16.2166C45.1719 16.2166 45.1895 16.2334 45.2021 16.2538C45.2146 16.2742 45.2073 16.291 45.1857 16.291C45.1642 16.291 45.1466 16.2742 45.1466 16.2538ZM44.6133 16.2216C44.5974 16.1957 44.5943 16.1645 44.6065 16.1522C44.6396 16.119 44.6757 16.1679 44.6578 16.2218C44.6453 16.2595 44.6366 16.2596 44.6133 16.2216ZM44.7489 16.2292C44.6732 16.1985 44.6965 16.1477 44.7767 16.1687C44.8174 16.1794 44.8507 16.2029 44.8507 16.221C44.8507 16.2564 44.8218 16.2587 44.7489 16.2292ZM62.4823 16.0433C62.4398 16.0005 62.4554 15.9566 62.5131 15.9566C62.5437 15.9566 62.5686 15.9816 62.5686 16.0123C62.5686 16.0703 62.5249 16.086 62.4823 16.0433ZM16.5769 15.8157C16.567 15.7995 16.5913 15.7838 16.631 15.7808C16.6708 15.7777 16.6936 15.791 16.6818 15.8102C16.6556 15.8528 16.6015 15.8556 16.5769 15.8157ZM16.9104 15.7518C16.922 15.7214 16.9589 15.6952 16.9923 15.6936C17.0257 15.692 17.128 15.6832 17.2195 15.674C17.3396 15.662 17.3705 15.6678 17.3305 15.6949C17.2847 15.7259 17.2842 15.7326 17.3274 15.7331C17.3562 15.7334 17.3694 15.7441 17.3567 15.7568C17.3441 15.7695 17.2337 15.7861 17.1115 15.7936C16.9263 15.8049 16.8927 15.798 16.9104 15.7518ZM1.81497 15.6619C1.78761 15.6174 1.8572 15.5734 1.90646 15.604C1.94783 15.6297 1.92067 15.6965 1.86887 15.6965C1.85093 15.6965 1.82667 15.6809 1.81497 15.6619ZM2.16479 14.6955C2.16479 14.6763 2.18124 14.6503 2.20135 14.6378C2.22232 14.6248 2.22852 14.6397 2.21589 14.6728C2.1913 14.7372 2.16479 14.7489 2.16479 14.6955ZM2.43604 14.6764C2.43604 14.6466 2.45019 14.631 2.46747 14.6418C2.48476 14.6525 2.48932 14.6769 2.47762 14.6959C2.44771 14.7445 2.43604 14.739 2.43604 14.6764ZM66.8964 9.82607C66.8659 9.80626 66.8576 9.79005 66.8779 9.79005C66.8982 9.79005 66.9399 9.80626 66.9704 9.82607C67.0009 9.84588 67.0092 9.86209 66.9889 9.86209C66.9685 9.86209 66.9269 9.84588 66.8964 9.82607ZM6.12266 7.06873C6.12266 7.05264 6.15595 7.03948 6.19664 7.03948C6.23733 7.03948 6.27062 7.05516 6.27062 7.07433C6.27062 7.09349 6.23733 7.10665 6.19664 7.10358C6.15595 7.10049 6.12266 7.08482 6.12266 7.06873ZM7.67166 6.52308L7.58492 6.45253L7.80627 6.42301C7.92801 6.40678 8.11499 6.39255 8.22177 6.39139C8.32855 6.39023 8.41594 6.37791 8.41597 6.36401C8.416 6.33508 8.63633 6.39269 8.67071 6.43062C8.68321 6.44441 8.64208 6.44589 8.57932 6.43393C8.50908 6.42053 8.42377 6.4342 8.35739 6.46942C8.29808 6.5009 8.16217 6.52828 8.05536 6.53026C7.94856 6.53224 7.86117 6.54731 7.86117 6.56374C7.86117 6.61701 7.76061 6.59543 7.67166 6.52308ZM7.20537 6.53403C7.21767 6.52168 7.24957 6.52036 7.27627 6.5311C7.30578 6.54296 7.29701 6.55176 7.25392 6.55355C7.21493 6.55515 7.19308 6.54637 7.20537 6.53403ZM6.53247 6.02083C6.53087 5.98166 6.5396 5.95972 6.55189 5.97206C6.56419 5.98441 6.5655 6.01646 6.55481 6.04328C6.54301 6.07292 6.53424 6.06411 6.53247 6.02083ZM7.54268 5.70855C7.55301 5.69176 7.5274 5.64872 7.48577 5.61292C7.41128 5.54886 7.41374 5.54607 7.63894 5.43909C7.91017 5.31025 7.93515 5.30735 7.93515 5.40468C7.93515 5.45047 7.9103 5.47921 7.87042 5.47956C7.81795 5.48003 7.8156 5.48644 7.85802 5.5134C7.8868 5.5317 7.9409 5.54077 7.97823 5.53355C8.01557 5.52632 8.04612 5.53745 8.04612 5.55828C8.04612 5.57911 7.99202 5.59317 7.9259 5.58954C7.85978 5.5859 7.77239 5.58488 7.7317 5.58727C7.67007 5.59088 7.66699 5.59761 7.71321 5.62762C7.76063 5.6584 7.75928 5.66372 7.70396 5.6642C7.66836 5.66454 7.63923 5.6815 7.63923 5.70193C7.63923 5.72236 7.61328 5.73908 7.58156 5.73908C7.54985 5.73908 7.53235 5.72534 7.54268 5.70855ZM8.01565 5.40873C7.97846 5.38565 7.97991 5.37015 8.02258 5.33458C8.08243 5.28468 8.13013 5.32827 8.08894 5.39521C8.07425 5.41908 8.04192 5.42504 8.01565 5.40873ZM6.73299 3.84419C6.72041 3.82376 6.7351 3.80704 6.76561 3.80704C6.79613 3.80704 6.83138 3.82376 6.84396 3.84419C6.85653 3.86463 6.84185 3.88135 6.81133 3.88135C6.78082 3.88135 6.74556 3.86463 6.73299 3.84419ZM7.49057 3.67785C7.54384 3.61338 7.56525 3.60667 7.56525 3.65444C7.56525 3.6727 7.53793 3.69816 7.50454 3.71103C7.45377 3.7306 7.45148 3.72516 7.49057 3.67785ZM59.7678 3.07826C59.8112 3.0347 60.048 3.00057 60.0958 3.03099C60.1233 3.04849 60.1292 3.06473 60.1088 3.06707C59.9097 3.09 59.751 3.0952 59.7678 3.07826ZM59.5433 3.03242C59.5125 3.01282 59.5355 3.00203 59.608 3.00203C59.6698 3.00203 59.7204 3.01596 59.7204 3.03299C59.7204 3.07253 59.6056 3.0722 59.5433 3.03242ZM58.5923 2.98498C58.4339 2.94938 58.0495 2.92384 57.3312 2.90121C57.0853 2.89346 56.8484 2.86799 56.8049 2.84461C56.7576 2.81917 56.5919 2.80623 56.3922 2.81237C56.2086 2.81802 56.0585 2.81884 56.0585 2.81418C56.0585 2.80125 56.2737 2.69238 56.2993 2.69238C56.3116 2.69238 56.3115 2.7091 56.2989 2.72953C56.2856 2.75121 56.3232 2.76669 56.3892 2.76669C56.4514 2.76669 56.5024 2.74997 56.5024 2.72953C56.5024 2.7091 56.52 2.69238 56.5415 2.69238C56.5631 2.69238 56.5682 2.71328 56.5529 2.73882C56.5324 2.77316 56.539 2.77546 56.5785 2.74764C56.6078 2.72694 56.6651 2.71193 56.7058 2.71427C56.7465 2.71661 56.8682 2.72101 56.9762 2.72403C57.0842 2.72706 57.1648 2.74207 57.1554 2.7574C57.1459 2.77272 57.2406 2.78281 57.3659 2.77982C57.4911 2.7768 57.6227 2.78996 57.6583 2.809C57.7015 2.8321 57.723 2.83009 57.723 2.80296C57.723 2.7806 57.7431 2.7748 57.7677 2.79006C57.7923 2.80533 57.9546 2.82238 58.1284 2.82796C58.3021 2.83353 58.4443 2.84007 58.4443 2.8425C58.4443 2.84492 58.5275 2.85232 58.6293 2.85894C58.731 2.86556 58.8184 2.87468 58.8235 2.87921C58.8321 2.88694 58.8702 2.89819 58.9344 2.91198C58.9639 2.91831 58.7902 3.02622 58.7587 3.02118C58.7485 3.01954 58.6736 3.00328 58.5923 2.98498ZM57.0942 2.79922C57.0942 2.78134 57.0619 2.76671 57.0224 2.76671C56.9829 2.76671 56.9416 2.78134 56.9306 2.79922C56.9196 2.8171 56.9519 2.83173 57.0024 2.83173C57.0529 2.83173 57.0942 2.8171 57.0942 2.79922ZM59.0727 2.6918C59.06 2.67103 59.034 2.66366 59.0151 2.67541C58.9961 2.68717 58.9806 2.68007 58.9806 2.65964C58.9806 2.5877 59.0403 2.58656 59.0845 2.65766C59.1091 2.69721 59.1217 2.72957 59.1126 2.72957C59.1035 2.72957 59.0855 2.71256 59.0727 2.6918ZM58.2809 2.54688C58.2419 2.50771 58.2023 2.48342 58.1929 2.4929C58.1834 2.50238 58.0947 2.51573 57.9956 2.52258C57.824 2.53445 57.6112 2.45791 57.6652 2.40372C57.7084 2.36034 57.9638 2.37049 58.0196 2.4178C58.0767 2.46624 58.1808 2.46785 58.2274 2.42099C58.2667 2.38156 58.4554 2.39021 58.4815 2.43263C58.517 2.49038 58.4642 2.61807 58.4048 2.61807C58.3757 2.61807 58.3199 2.58605 58.2809 2.54688ZM58.6627 2.5752C58.6469 2.54959 58.6525 2.54235 58.6765 2.55722C58.6985 2.57094 58.7271 2.56516 58.7398 2.54439C58.7743 2.48837 58.8204 2.49865 58.8204 2.56236C58.8204 2.62781 58.701 2.63752 58.6627 2.5752ZM15.417 2.29842C15.4293 2.28607 15.4612 2.28474 15.4879 2.29549C15.5174 2.30735 15.5087 2.31615 15.4656 2.31793C15.4266 2.31954 15.4048 2.31076 15.417 2.29842ZM22.8789 1.24338C22.8789 1.22294 22.8862 1.20622 22.8952 1.20622C22.9042 1.20622 22.9218 1.22294 22.9344 1.24338C22.947 1.26381 22.9396 1.28053 22.9181 1.28053C22.8965 1.28053 22.8789 1.26381 22.8789 1.24338ZM23.7414 1.24714C23.6817 1.20307 23.696 1.13975 23.7617 1.15702C23.8037 1.16803 23.8306 1.15288 23.8345 1.11606C23.8379 1.08391 23.8434 1.03253 23.8468 1.00187C23.8502 0.971221 23.8835 0.944055 23.9208 0.941499C23.9581 0.938934 24.0011 0.933404 24.0163 0.929184C24.0316 0.924958 24.094 0.908028 24.155 0.891548C24.2908 0.854909 24.3645 0.800176 24.3374 0.756162C24.3262 0.738043 24.35 0.723219 24.3902 0.723219C24.4304 0.723219 24.4717 0.744115 24.482 0.769661C24.4951 0.80193 24.5101 0.803934 24.5314 0.776242C24.5857 0.705397 24.6989 0.683286 24.7587 0.731871C24.8066 0.770867 24.8111 0.769894 24.7849 0.726191C24.7608 0.686117 24.7688 0.679416 24.8178 0.698325C24.8533 0.712018 24.9049 0.723217 24.9324 0.723217C24.9598 0.723217 24.9923 0.754938 25.0046 0.793711C25.0189 0.839026 25.0506 0.85796 25.0934 0.846728C25.1878 0.821928 25.178 0.730061 25.0829 0.747655C25.0076 0.761555 25.0076 0.761047 25.0798 0.726589C25.1205 0.707172 25.2101 0.69011 25.279 0.688674C25.3478 0.687227 25.5059 0.669664 25.6304 0.649619C25.9528 0.597675 26.7634 0.506649 27.1327 0.480911C27.3056 0.468865 27.522 0.452379 27.6136 0.444276C27.8064 0.427208 28.1872 0.400038 28.6863 0.367736C28.8795 0.355226 29.1458 0.335782 29.2781 0.32453C29.5959 0.297486 30.0962 0.295469 30.1658 0.320964C30.1963 0.332136 30.2921 0.354112 30.3785 0.369807C30.465 0.385498 30.5357 0.41064 30.5357 0.425676C30.5357 0.44071 30.4946 0.494349 30.4443 0.544867C30.3698 0.619648 30.3182 0.636042 30.1667 0.633065C30.056 0.630864 29.9856 0.644661 29.9931 0.667033C29.9999 0.687722 30.1337 0.706029 30.2903 0.707708C30.5363 0.71034 30.7001 0.758413 30.6442 0.811526C30.6192 0.835291 30.1288 0.858773 30.1289 0.836204C30.129 0.825153 30.0166 0.821343 29.8792 0.827734C29.7419 0.834128 29.534 0.824175 29.4173 0.805574C29.3006 0.786991 29.1972 0.779719 29.1875 0.789417C29.1779 0.799107 29.0986 0.810566 29.0113 0.814878C28.9241 0.819192 28.8067 0.835634 28.7505 0.851427C28.6897 0.868505 28.6293 0.864273 28.6013 0.840982C28.5755 0.819445 28.3934 0.797958 28.1967 0.793233C27.9532 0.787391 27.8467 0.771881 27.8629 0.744646C27.876 0.722653 27.8584 0.727674 27.8239 0.755813C27.7807 0.791003 27.7142 0.799429 27.6106 0.782801C27.5118 0.76693 27.4682 0.771689 27.4836 0.796663C27.5097 0.83923 27.5049 0.840045 27.1697 0.849092C27.0374 0.852659 26.8918 0.868726 26.846 0.884795C26.8003 0.900864 26.7628 0.900344 26.7628 0.883643C26.7628 0.86694 26.7212 0.853274 26.6703 0.853274C26.6195 0.853274 26.5779 0.865813 26.5779 0.881139C26.5779 0.896465 26.5519 0.909005 26.5202 0.909005C26.4885 0.909005 26.4712 0.894885 26.4818 0.877617C26.5075 0.835894 26.1275 0.89717 26.0999 0.939202C26.0494 1.01615 25.3572 1.09412 25.3572 1.02287C25.3572 1.00112 25.3396 0.983314 25.318 0.983314C25.2965 0.983314 25.2884 0.998881 25.3001 1.0179C25.3336 1.07229 25.2485 1.10577 25.1934 1.05988C25.1565 1.02909 25.1392 1.03098 25.1253 1.06726C25.1133 1.09859 25.0525 1.1129 24.9545 1.1074C24.8708 1.1027 24.8024 1.11447 24.8024 1.13356C24.8024 1.195 24.6123 1.15465 24.5754 1.08537C24.5558 1.04853 24.5236 1.02837 24.504 1.04057C24.4843 1.05278 24.4767 1.07657 24.4871 1.09345C24.4975 1.11033 24.4817 1.13353 24.4519 1.145C24.4222 1.15646 24.3878 1.14959 24.3756 1.12972C24.3621 1.1077 24.3147 1.11527 24.2542 1.14911C24.1404 1.21279 23.7865 1.28044 23.7414 1.24714ZM23.2118 1.07838C23.2118 1.01312 23.234 1.00351 23.2657 1.05504C23.2774 1.07406 23.2701 1.10013 23.2494 1.11296C23.2287 1.1258 23.2118 1.11027 23.2118 1.07838ZM23.3512 1.0142C23.3727 0.992605 23.4121 0.982249 23.4388 0.991184C23.4665 1.00046 23.4497 1.0173 23.3997 1.03044C23.3382 1.0466 23.3238 1.04176 23.3512 1.0142ZM36.0934 0.919923C36.0476 0.911068 36.0102 0.891059 36.0102 0.875463C36.0102 0.829994 36.1709 0.85471 36.1868 0.902624C36.1948 0.92656 36.1957 0.943865 36.1889 0.941082C36.1822 0.938289 36.1392 0.92878 36.0934 0.919923ZM35.3259 0.834678C35.4276 0.79079 35.486 0.79079 35.4183 0.834678C35.3878 0.854491 35.3379 0.869782 35.3074 0.868654C35.2708 0.867308 35.2771 0.855736 35.3259 0.834678ZM35.5499 0.838137C35.5385 0.819607 35.5625 0.813199 35.6032 0.823896C35.6896 0.846583 35.7005 0.87183 35.624 0.87183C35.5946 0.87183 35.5613 0.856667 35.5499 0.838137ZM30.7881 0.754056C30.7298 0.695275 30.7563 0.691198 31.2134 0.688431C31.4815 0.686789 31.738 0.678276 31.7833 0.669473C31.8287 0.660669 31.8744 0.6675 31.885 0.684644C31.8955 0.701791 31.9551 0.712278 32.0173 0.707947C32.1857 0.696245 32.1865 0.750337 32.0182 0.766455C31.9387 0.774076 31.8815 0.767444 31.8911 0.75176C31.9215 0.702409 31.8645 0.720719 31.8066 0.778942C31.7436 0.84215 31.5874 0.85353 31.5529 0.79742C31.5377 0.772683 31.5056 0.773257 31.4575 0.799129C31.3756 0.843153 31.2985 0.813236 31.3361 0.752046C31.3526 0.725288 31.3434 0.722743 31.309 0.744478C31.2804 0.762496 31.1655 0.786122 31.0536 0.796983C30.8935 0.81252 30.8369 0.803389 30.7881 0.754056ZM33.7538 0.797515C33.7538 0.777082 33.7611 0.760364 33.7701 0.760364C33.7791 0.760364 33.7967 0.777082 33.8093 0.797515C33.8219 0.817951 33.8145 0.83467 33.793 0.83467C33.7714 0.83467 33.7538 0.817951 33.7538 0.797515ZM32.2742 0.723206C32.2409 0.701567 32.2363 0.686961 32.2628 0.68662C32.287 0.686283 32.3171 0.70277 32.3297 0.723206C32.3581 0.769336 32.3453 0.769336 32.2742 0.723206ZM46.7217 0.71814C46.7409 0.687034 46.6 0.650445 46.5714 0.679115C46.5316 0.719061 46.3672 0.726608 46.3672 0.688483C46.3672 0.664902 46.262 0.65922 46.0806 0.673012C45.8581 0.689922 45.7649 0.681208 45.6644 0.634147C45.5932 0.60079 45.563 0.581162 45.5973 0.590531C45.6316 0.5999 45.6649 0.593028 45.6713 0.575284C45.6777 0.557532 45.7079 0.537574 45.7384 0.53093C45.7689 0.524294 45.8061 0.502137 45.8211 0.4817C45.836 0.461264 45.8485 0.481162 45.8488 0.525941C45.8493 0.602884 45.8549 0.604416 45.9511 0.553959C46.0423 0.506077 46.0581 0.50726 46.104 0.56545C46.1527 0.627146 46.1542 0.627139 46.1329 0.56545C46.1157 0.515271 46.131 0.500431 46.2001 0.500431C46.2493 0.500431 46.3065 0.529691 46.3273 0.56545C46.3482 0.601534 46.3655 0.609801 46.3661 0.584029C46.3673 0.535375 46.4782 0.51699 46.4782 0.56545C46.4782 0.580776 46.604 0.592349 46.7578 0.59117C46.9116 0.589985 47.0458 0.602526 47.0559 0.619036C47.0661 0.635541 47.11 0.649046 47.1536 0.649046C47.2169 0.649046 47.2235 0.658336 47.1865 0.695488C47.1403 0.74199 46.6937 0.763747 46.7217 0.71814ZM47.329 0.717022C47.329 0.699991 47.3414 0.684932 47.3567 0.683552C47.372 0.682172 47.4377 0.674045 47.5028 0.665495C47.6491 0.646261 47.7012 0.710001 47.5605 0.736043C47.4213 0.761789 47.329 0.754208 47.329 0.717022ZM44.6657 0.59317C44.6658 0.572737 44.6033 0.556019 44.527 0.556019C44.4507 0.556019 44.3761 0.572737 44.3611 0.59317C44.343 0.617941 44.3337 0.617941 44.3333 0.59317C44.3325 0.546623 44.1109 0.535612 44.1109 0.582123C44.1109 0.60083 44.0957 0.606746 44.0773 0.595267C44.042 0.573398 43.7167 0.538285 43.3711 0.519059C43.2592 0.512834 43.1676 0.503987 43.1676 0.499396C43.1676 0.474494 42.6809 0.474109 42.6498 0.498991C42.5942 0.543403 42.2244 0.574387 42.2244 0.534629C42.2244 0.51574 42.1994 0.500289 42.1689 0.500289C42.1384 0.500289 42.1134 0.516422 42.1134 0.536144C42.1134 0.558529 41.8529 0.56539 41.4199 0.554415C41.0384 0.544747 40.6862 0.53701 40.6371 0.537224C40.588 0.537561 40.4923 0.522198 40.4244 0.503366C40.3502 0.482775 40.301 0.482647 40.301 0.503029C40.301 0.536793 40.1716 0.531324 40.1365 0.496075C40.1264 0.485908 39.958 0.483531 39.7624 0.490798C39.5267 0.499556 39.3892 0.48932 39.3545 0.460437C39.3138 0.426498 39.3021 0.42814 39.3017 0.467855C39.3013 0.500073 39.2911 0.504559 39.2739 0.480034C39.2576 0.45674 39.0472 0.439375 38.7474 0.436599C38.4727 0.434068 37.6405 0.422402 36.8979 0.410717C36.1554 0.399035 35.2024 0.387245 34.7803 0.384525C34.3581 0.381833 34.0127 0.369116 34.0127 0.35633C34.0126 0.343537 33.9211 0.333074 33.8092 0.333074C33.6974 0.333074 33.6058 0.345614 33.6058 0.36094C33.6059 0.376266 33.5882 0.388807 33.5667 0.388807C33.5451 0.388807 33.5378 0.372086 33.5504 0.35165C33.5629 0.331217 33.5473 0.314498 33.5156 0.314498C33.4838 0.314515 33.4579 0.297795 33.4579 0.277362C33.4579 0.256926 33.4403 0.240206 33.4187 0.240206C33.3972 0.240206 33.3898 0.256926 33.4024 0.277362C33.4159 0.299307 33.3752 0.314284 33.3029 0.313946C33.2102 0.313475 33.194 0.30462 33.236 0.277362C33.2769 0.250761 33.2787 0.241196 33.2426 0.240775C33.2049 0.240304 33.2064 0.227394 33.2492 0.184474C33.2797 0.153822 33.3391 0.128742 33.3813 0.128742C33.4234 0.128742 33.4579 0.110895 33.4579 0.0890824C33.4579 0.0655574 33.4899 0.0596204 33.5365 0.0744901C33.5894 0.0913539 33.6068 0.0860958 33.5898 0.0584171C33.5759 0.0357892 33.5743 0.0172785 33.5864 0.0172785C33.5984 0.0172785 33.6209 0.0516643 33.6364 0.0936931L33.6645 0.170111L33.7621 0.093039C33.8289 0.0402121 33.8677 0.0291081 33.8853 0.0577465C33.9035 0.0873668 33.92 0.0848568 33.942 0.0491144C33.9672 0.00814687 34.221 -0.00103808 35.2968 8.91813e-05C36.0248 0.000876578 36.9201 0.012212 37.2863 0.0253427C37.6525 0.0384707 38.2601 0.0589063 38.6364 0.0707563C39.9954 0.113534 40.3455 0.129081 40.376 0.147986C40.4441 0.190229 40.7421 0.2277 40.7872 0.199683C40.8151 0.182418 40.8475 0.188582 40.8641 0.214303C40.8855 0.247495 40.902 0.244639 40.9292 0.203051C40.9492 0.172398 40.9659 0.164038 40.9662 0.184474C40.9666 0.207924 41.1954 0.219971 41.5864 0.217139C42.2043 0.212657 43.2601 0.272633 43.2602 0.312225C43.2602 0.323702 43.3892 0.33121 43.5468 0.328917C43.817 0.32498 44.4393 0.375827 44.5497 0.410856C44.5904 0.42378 44.5911 0.43767 44.5537 0.483004C44.5159 0.528691 44.5169 0.536105 44.5588 0.522819C44.5871 0.513842 44.6567 0.496248 44.7135 0.483725C44.7771 0.469693 44.8085 0.443545 44.7953 0.415601C44.7835 0.390656 44.7933 0.396419 44.817 0.4284C44.8519 0.475433 44.8994 0.481201 45.0655 0.45856C45.1824 0.442639 45.2989 0.445599 45.3358 0.465424C45.3715 0.484601 45.4475 0.502565 45.5048 0.505347C45.6007 0.510005 45.6019 0.51174 45.5197 0.527298C45.4507 0.54037 45.4423 0.551704 45.4827 0.577401C45.5399 0.613761 45.4919 0.618315 44.9709 0.625893C44.7892 0.628525 44.6657 0.615299 44.6657 0.59317ZM33.9152 0.258995C33.9036 0.228458 33.8791 0.212728 33.8609 0.224035C33.8087 0.256456 33.8223 0.314512 33.8821 0.314512C33.9151 0.314512 33.9281 0.292717 33.9152 0.258995ZM31.7579 0.386003C31.7959 0.314554 31.7937 0.30644 31.7413 0.326621C31.6891 0.346751 31.6868 0.338614 31.7244 0.267996L31.7681 0.185999L31.8049 0.268835C31.8471 0.363871 31.9235 0.37769 31.9547 0.295935C31.9664 0.265282 31.9626 0.240203 31.9463 0.240203C31.93 0.240203 31.9167 0.21492 31.9167 0.184014C31.9167 0.138332 31.9501 0.132278 32.0954 0.151646C32.2176 0.167918 32.2742 0.162179 32.2742 0.133531C32.2742 0.110232 32.3328 0.091587 32.4059 0.091587C32.4922 0.091587 32.5289 0.105661 32.5124 0.132448C32.4945 0.161497 32.5097 0.161251 32.5648 0.131594C32.6293 0.096929 32.6388 0.0994431 32.6208 0.146463C32.6089 0.177587 32.5844 0.203053 32.5662 0.203053C32.548 0.203053 32.5332 0.219772 32.5332 0.240205C32.5332 0.317655 32.6 0.272892 32.6441 0.165897C32.6956 0.0411143 32.6969 0.0404283 32.7896 0.0902746C32.8364 0.11542 32.8509 0.154682 32.8381 0.221856C32.8281 0.274516 32.8344 0.312729 32.8522 0.306769C32.87 0.300813 32.8929 0.312273 32.903 0.332248C32.914 0.353726 32.8261 0.371133 32.6878 0.374862C32.4742 0.380623 32.4507 0.373516 32.4137 0.292109C32.3739 0.204331 32.2372 0.165839 32.2372 0.242397C32.2372 0.264043 32.2537 0.271531 32.2738 0.259048C32.2944 0.246235 32.3012 0.260462 32.2892 0.291662C32.2769 0.323984 32.2438 0.337609 32.2096 0.324431C32.1716 0.309778 32.1603 0.316719 32.1772 0.344269C32.207 0.392631 32.084 0.42834 31.9413 0.412787C31.8905 0.407248 31.8185 0.417572 31.7813 0.435734C31.7208 0.465325 31.7184 0.46016 31.7579 0.386003ZM32.7698 0.246397C32.7803 0.229369 32.7653 0.215436 32.7366 0.215436C32.7079 0.215436 32.6929 0.229369 32.7034 0.246397C32.7139 0.263425 32.7288 0.277359 32.7366 0.277359C32.7444 0.277359 32.7593 0.263425 32.7698 0.246397ZM31.2596 0.393045C31.2485 0.374932 31.2725 0.351404 31.3131 0.340754C31.3622 0.327856 31.3792 0.30163 31.3642 0.262223C31.3518 0.229678 31.3572 0.20305 31.3764 0.20305C31.4271 0.20305 31.4189 0.324418 31.3645 0.379092C31.3093 0.434548 31.287 0.437512 31.2596 0.393045ZM31.4864 0.289744C31.4969 0.262496 31.5101 0.240203 31.5159 0.240203C31.5218 0.240203 31.535 0.262496 31.5454 0.289744C31.5559 0.316992 31.5426 0.339284 31.5159 0.339284C31.4893 0.339284 31.476 0.316992 31.4864 0.289744ZM31.6291 0.185654C31.6686 0.155652 31.7374 0.130573 31.7819 0.129922C31.8702 0.12861 31.9264 0.184977 31.8711 0.219293C31.8522 0.231048 31.8303 0.22146 31.8225 0.197953C31.8118 0.165855 31.7887 0.165793 31.7293 0.197617C31.6156 0.258742 31.5441 0.250232 31.6291 0.185654ZM31.1376 0.1806C31.1499 0.168254 31.1818 0.166933 31.2085 0.177672C31.238 0.189531 31.2292 0.198336 31.1861 0.200117C31.1471 0.201725 31.1253 0.192946 31.1376 0.1806ZM33.088 0.165891C33.0406 0.135114 33.0419 0.129791 33.0972 0.129304C33.1328 0.128967 33.162 0.145455 33.162 0.165891C33.162 0.211206 33.1578 0.211206 33.088 0.165891ZM32.8893 0.109302C32.8717 0.0631289 32.8812 0.0599485 32.9409 0.0920306C33.0266 0.138124 33.0347 0.165891 32.9625 0.165891C32.9342 0.165891 32.9012 0.140424 32.8893 0.109302Z" fill="#0EA5E9"/>
</svg>
