<svg width="24" height="24" viewBox="0 0 24 24" fill="none" xmlns="http://www.w3.org/2000/svg">
<g clip-path="url(#clip0_12_11)">
<path d="M22 8.5V14V17C22 17.7911 21.7654 18.5645 21.3259 19.2223C20.8864 19.8801 20.2616 20.3928 19.5307 20.6955C18.7998 20.9983 17.9956 21.0775 17.2196 20.9231C16.4437 20.7688 15.731 20.3878 15.1716 19.8284C14.6122 19.269 14.2312 18.5563 14.0769 17.7804C13.9225 17.0044 14.0017 16.2002 14.3045 15.4693C14.6072 14.7384 15.1199 14.1136 15.7777 13.6741C16.4355 13.2346 17.2089 13 18 13H6M6 13V6C6 5.20435 6.31607 4.44129 6.87868 3.87868C7.44129 3.31607 8.20435 3 9 3H14M6 13C4.93913 13 3.92172 13.4214 3.17157 14.1716C2.42143 14.9217 2 15.9391 2 17C2 18.0609 2.42143 19.0783 3.17157 19.8284C3.92172 20.5786 4.93913 21 6 21H12" stroke="white" stroke-width="1.5" stroke-linecap="round" stroke-linejoin="round"/>
<path d="M16.992 4H19.992M19.992 4H22.992M19.992 4V1M19.992 4V7" stroke="#0EA5E9" stroke-width="1.5" stroke-linecap="round" stroke-linejoin="round"/>
</g>
<defs>
<clipPath id="clip0_12_11">
<rect width="24" height="24" fill="white"/>
</clipPath>
</defs>
</svg>
